<svg id="Layer_1" data-name="Layer 1" xmlns="http://www.w3.org/2000/svg" viewBox="0 0 178.58 178.58"><defs><style>.cls-1{fill:#2e7a3c;}</style></defs><title>obcerstveni</title><path class="cls-1" d="M89.23,136.54q9.69,0,19.36,0c1.86,0,1.93-.13,1.57-2-.57-3-1.21-5.94-1.68-8.94-.23-1.49-.79-1.72-2.18-1.33a63.28,63.28,0,0,1-15.55,2.31A62.41,62.41,0,0,1,72,124.16c-1.24-.35-1.62,0-1.82,1.15-.51,3.1-1.15,6.18-1.73,9.27-.35,1.84-.27,2,1.62,2q9.6,0,19.19,0m.09-69q-25.06,0-50.13,0c-4.53,0-3.73-.06-3.1,3.68A53.93,53.93,0,0,0,142.68,70c.34-2.43.34-2.44-2.09-2.44H89.32M55.1,172.75c-3.11-2-3.75-3.33-3.07-6.91q4.15-21.9,8.39-43.77c.3-1.53.09-2.35-1.42-3.19C40,108.23,28.83,92.13,25.66,70.53a48.51,48.51,0,0,1-.58-7.62c0-3.49,2.1-5.56,5.6-5.56H147.92c3.56,0,5.66,2.08,5.58,5.72a63.7,63.7,0,0,1-15.27,40.78,61.38,61.38,0,0,1-19.06,15.27,1.91,1.91,0,0,0-1.09,2.47q2.7,13.8,5.33,27.63,1.59,8.29,3.15,16.62c.67,3.59,0,4.91-3.07,6.91h-3.25a6,6,0,0,1-3.71-4.95c-1.16-6.4-2.46-12.78-3.62-19.18-.25-1.36-.74-1.86-2.2-1.86q-21.42.09-42.83,0c-1.46,0-2,.51-2.22,1.86-1.16,6.4-2.44,12.78-3.6,19.18a6,6,0,0,1-3.7,4.95Z"/><path class="cls-1" d="M120.71,19.4c0,4.34-1.81,8.17-4.71,11.57a21,21,0,0,0-1.64,2c-1.89,2.83-1.76,5.26.44,7.87a6.8,6.8,0,0,1,2,3.49,5,5,0,0,1-2.65,5.3,5.17,5.17,0,0,1-5.9-.86,16,16,0,0,1-4.45-17.37,21.1,21.1,0,0,1,4-6.63,15.78,15.78,0,0,0,1.33-1.63c2-3,1.8-5.48-.55-8.13a5.89,5.89,0,0,1-1.84-3.7,5,5,0,0,1,2.78-4.92,4.77,4.77,0,0,1,5.61.75c3.46,3.22,5.64,7.11,5.59,12.24"/><path class="cls-1" d="M98.24,19.27a17.65,17.65,0,0,1-4.68,11.67A23.08,23.08,0,0,0,92,32.82c-2,2.93-1.92,5.43.39,8.13a6.56,6.56,0,0,1,1.86,3.18,5.06,5.06,0,0,1-2.45,5.42,5.15,5.15,0,0,1-6-.72,16.16,16.16,0,0,1-4.51-17.37,20.75,20.75,0,0,1,4.36-7,8.69,8.69,0,0,0,2.19-3.76A5.76,5.76,0,0,0,86,14.94a5.3,5.3,0,0,1-1.56-5.49,5,5,0,0,1,8.15-2.32c3.56,3.23,5.71,7.19,5.63,12.14"/><path class="cls-1" d="M75.76,19a17.67,17.67,0,0,1-4.68,11.91c-.52.62-1.08,1.22-1.55,1.88-2,2.93-1.91,5.42.4,8.14a6.67,6.67,0,0,1,1.89,3.34,5.06,5.06,0,0,1-2.62,5.33,5.18,5.18,0,0,1-6-.92,16.13,16.13,0,0,1-3-20.34,24.28,24.28,0,0,1,3-4c2.68-2.92,3.23-6.49.1-9.67a5.1,5.1,0,0,1,.09-7.53c2.14-1.9,5.18-1.65,7.41.65,3.09,3.2,5,6.92,4.9,11.24"/></svg>