<svg id="Layer_1" data-name="Layer 1" xmlns="http://www.w3.org/2000/svg" xmlns:xlink="http://www.w3.org/1999/xlink" viewBox="0 0 128.43 166.92"><defs><style>.cls-1{fill:none;}.cls-2{clip-path:url(#clip-path);}.cls-3{fill:#2c7732;}</style><clipPath id="clip-path"><rect class="cls-1" width="128.43" height="166.92"/></clipPath></defs><title>obcerstveni</title><g class="cls-2"><path class="cls-3" d="M64.15,130.71H83.51c1.86,0,1.93-.13,1.57-2-.57-3-1.21-5.94-1.67-8.94-.24-1.5-.8-1.72-2.18-1.33a63.35,63.35,0,0,1-15.55,2.31,62.43,62.43,0,0,1-18.79-2.42c-1.24-.35-1.62,0-1.82,1.15-.51,3.1-1.15,6.18-1.73,9.27-.35,1.84-.27,2,1.62,2H64.15m.09-69H14.12c-4.54,0-3.74-.07-3.11,3.68A53.93,53.93,0,0,0,117.6,64.18c.34-2.43.34-2.44-2.09-2.44H64.24M30,166.92c-3.11-2-3.75-3.33-3.07-6.91q4.15-21.9,8.39-43.77c.3-1.53.1-2.35-1.42-3.19C14.92,102.4,3.75,86.29.58,64.7A48.51,48.51,0,0,1,0,57.08c0-3.5,2.1-5.56,5.6-5.56q58.62,0,117.24,0c3.56,0,5.66,2.08,5.58,5.72A63.7,63.7,0,0,1,113.15,98a61.38,61.38,0,0,1-19.06,15.27A1.91,1.91,0,0,0,93,115.76q2.7,13.8,5.33,27.63,1.61,8.3,3.15,16.62c.67,3.59,0,4.91-3.07,6.91H95.16A6,6,0,0,1,91.45,162c-1.16-6.4-2.46-12.78-3.62-19.18-.25-1.36-.74-1.86-2.2-1.86q-21.42.09-42.83,0c-1.45,0-2,.5-2.22,1.85-1.16,6.4-2.44,12.78-3.6,19.19a6,6,0,0,1-3.7,4.95Z"/><path class="cls-3" d="M95.63,13.57c0,4.34-1.81,8.17-4.71,11.57a22.6,22.6,0,0,0-1.64,2c-1.89,2.83-1.76,5.26.44,7.87a6.81,6.81,0,0,1,2,3.48A5,5,0,0,1,89,43.82,5.16,5.16,0,0,1,83.13,43a16,16,0,0,1-4.46-17.37,21,21,0,0,1,4-6.63,17.31,17.31,0,0,0,1.34-1.63c2-3,1.79-5.48-.56-8.13a5.89,5.89,0,0,1-1.84-3.7A5,5,0,0,1,84.43.58,4.77,4.77,0,0,1,90,1.32c3.46,3.23,5.64,7.11,5.59,12.25"/><path class="cls-3" d="M73.16,13.44a17.65,17.65,0,0,1-4.68,11.67A23.08,23.08,0,0,0,66.93,27c-2,2.93-1.92,5.43.39,8.13a6.56,6.56,0,0,1,1.86,3.18,5,5,0,0,1-2.45,5.41,5.14,5.14,0,0,1-6-.72,16.14,16.14,0,0,1-4.5-17.36,20.72,20.72,0,0,1,4.35-7,8.75,8.75,0,0,0,2.19-3.76,5.76,5.76,0,0,0-1.79-5.77,5.3,5.3,0,0,1-1.56-5.49A5,5,0,0,1,67.53,1.3c3.56,3.23,5.71,7.19,5.63,12.14"/><path class="cls-3" d="M50.69,13.2A17.73,17.73,0,0,1,46,25.11c-.52.62-1.08,1.22-1.54,1.88-2,2.93-1.92,5.42.39,8.14a6.6,6.6,0,0,1,1.89,3.34,5,5,0,0,1-2.62,5.33,5.18,5.18,0,0,1-6-.92,16.13,16.13,0,0,1-3-20.34,24.84,24.84,0,0,1,3-4c2.69-2.93,3.23-6.49.1-9.67a5.09,5.09,0,0,1,.1-7.53c2.13-1.9,5.17-1.65,7.4.65,3.09,3.2,5,6.92,4.91,11.24"/></g></svg>