<svg id="Layer_1" data-name="Layer 1" xmlns="http://www.w3.org/2000/svg" viewBox="0 0 178.58 178.58"><defs><style>.cls-1{fill:#2c7732;}</style></defs><title>dresscode</title><path class="cls-1" d="M89.21,135.39h19.55q19.26,0,38.51,0a7.19,7.19,0,0,0,4.83-1.61c3.54-3,3.16-8.66-1.67-11.42q-30.08-17.22-60-34.66a2.15,2.15,0,0,0-2.49,0Q65.29,100.88,42.61,114c-5,2.88-9.94,5.73-14.9,8.62-2.73,1.59-4.16,4.2-3.77,6.76a6.67,6.67,0,0,0,7.06,6H89.21M15,125.93c1.24-5.49,4.58-9.15,9.44-11.93,19.69-11.24,39.27-22.66,58.92-34a2.31,2.31,0,0,0,1.38-2.38c-.26-7.24,3-12.51,9.17-16.18a9.72,9.72,0,0,0,5-10.24,9.93,9.93,0,0,0-8-8,9.83,9.83,0,0,0-11.51,8.83c0,.24,0,.48,0,.72-.24,2.84-2.2,4.72-4.78,4.57s-4.34-2.22-4.29-5A18.87,18.87,0,0,1,108,53.44,17.93,17.93,0,0,1,98.79,69c-3.53,2.08-5.25,4.94-5.17,9a1.92,1.92,0,0,0,1.07,1.84q20.88,12,41.73,24.09c6.47,3.75,13,7.45,19.4,11.25A15.7,15.7,0,0,1,151,144.06a22.11,22.11,0,0,1-4.6.4q-57.15,0-114.28,0c-9.06,0-15.49-5.59-16.9-12.68a2.31,2.31,0,0,0-.16-.41Z"/></svg>