<svg id="Layer_1" data-name="Layer 1" xmlns="http://www.w3.org/2000/svg" xmlns:xlink="http://www.w3.org/1999/xlink" viewBox="0 0 148.52 110.42"><defs><style>.cls-1{fill:none;}.cls-2{clip-path:url(#clip-path);}.cls-3{fill:#2c7732;}</style><clipPath id="clip-path"><rect class="cls-1" width="148.52" height="110.42"/></clipPath></defs><title>dresscode</title><g class="cls-2"><path class="cls-3" d="M74.18,101.31H93.73q19.24,0,38.51,0a7.16,7.16,0,0,0,4.82-1.61c3.55-3,3.17-8.66-1.66-11.43q-30.08-17.2-60-34.65a2.15,2.15,0,0,0-2.49,0Q50.26,66.79,27.58,79.87c-5,2.87-9.94,5.73-14.9,8.62-2.74,1.59-4.16,4.19-3.77,6.76a6.68,6.68,0,0,0,7.06,6H74.18M0,91.84c1.23-5.48,4.57-9.15,9.44-11.92,19.69-11.24,39.27-22.66,58.91-34a2.33,2.33,0,0,0,1.39-2.38c-.27-7.25,3-12.51,9.17-16.18a9.72,9.72,0,0,0,5-10.24A9.82,9.82,0,0,0,64.39,18c0,.24,0,.48,0,.72-.24,2.83-2.21,4.71-4.78,4.57s-4.34-2.22-4.3-5A18.87,18.87,0,0,1,93,19.36a17.92,17.92,0,0,1-9.26,15.57c-3.52,2.08-5.24,4.93-5.16,9a1.91,1.91,0,0,0,1.07,1.84q20.88,12,41.73,24.09c6.47,3.74,13,7.45,19.4,11.25A15.7,15.7,0,0,1,135.94,110a22.21,22.21,0,0,1-4.61.41c-38.09,0-76.18-.07-114.27,0C8,110.44,1.57,104.83.16,97.73a2.78,2.78,0,0,0-.16-.4Z"/></g></svg>