<svg id="Layer_1" data-name="Layer 1" xmlns="http://www.w3.org/2000/svg" viewBox="0 0 178.58 178.58"><defs><style>.cls-1{fill:#2c7732;}</style></defs><title>dary</title><path class="cls-1" d="M138.3,155.41h-98a2.86,2.86,0,0,0-.48-.2c-5.38-1.36-9-6.32-9-12.56.17-18.6.06-37.2.06-55.8,0-.43,0-.86,0-1.29a1.13,1.13,0,0,0-.68-1.14,12.35,12.35,0,0,1-7-8.45V63.59c.11-.28.24-.56.33-.84q2.93-8.52,11.93-8.55H48.93c1.27,0,1.33-.13.67-1.19a19.43,19.43,0,0,1-3-10.52c0-12.81,12.77-22.88,26.55-18.07,4.91,1.71,8,5.52,10.36,9.93a105.89,105.89,0,0,1,5.11,11.41c.14.34.17.89.58.93s.56-.57.7-.93a121.17,121.17,0,0,1,5.16-11.52c4.25-8,10.93-11.81,19.45-10.94a19.49,19.49,0,0,1,14.51,29.6c-.2.32-.6.64-.43,1s.77.27,1.17.27c4.72,0,9.45,0,14.18,0a11.4,11.4,0,0,1,7.22,2.68,13.08,13.08,0,0,1,4.13,6.7V76a12.35,12.35,0,0,1-7,8.45,1.12,1.12,0,0,0-.67,1.14c0,.43,0,.86,0,1.29q0,28.29,0,56.57a11.94,11.94,0,0,1-3.39,8.64A13.79,13.79,0,0,1,138.3,155.41ZM73.72,116.55q0-14.76,0-29.52c0-1.64,0-1.68-1.66-1.68H40.47c-1.58,0-1.63.06-1.63,1.71v55.7c0,3.37,1.43,4.8,4.79,4.81q14.19,0,28.36,0c1.69,0,1.72,0,1.72-1.75Q73.72,131.18,73.72,116.55Zm31.15-.13c0,9.84,0,19.68,0,29.52,0,1.23.35,1.66,1.61,1.65,9.5,0,19,0,28.5,0,3.36,0,4.79-1.44,4.79-4.81q0-27.84,0-55.69c0-1.69,0-1.72-1.75-1.72H106.66c-1.79,0-1.79,0-1.79,1.81ZM81.65,104.75v41.12c0,1.65,0,1.7,1.64,1.7h12c1.61,0,1.65,0,1.65-1.69V63.78c0-1.6-.05-1.64-1.7-1.64H83.5c-1.84,0-1.85,0-1.85,1.88ZM53.83,77.41c6.14,0,12.29,0,18.44,0,1,0,1.47-.29,1.46-1.39q-.06-6.26,0-12.51c0-1.09-.41-1.41-1.45-1.41-12.25,0-24.5,0-36.75,0-2.87,0-4.37,1.54-4.42,4.4,0,2,0,4,0,5.93,0,3.54,1.39,4.93,4.93,4.93C42,77.42,47.9,77.41,53.83,77.41Zm70.81,0q9.09,0,18.18,0c3.18,0,4.64-1.49,4.66-4.69,0-2,0-4,0-5.93,0-3.18-1.49-4.64-4.7-4.65-12.12,0-24.24,0-36.36,0-1.18,0-1.59.36-1.57,1.55.05,4,.06,8.08,0,12.12,0,1.24.36,1.66,1.62,1.65C112.52,77.38,118.58,77.41,124.64,77.41Zm-51-23.21h7.91c1.75,0,1.78,0,1.16-1.6-.84-2.12-1.66-4.24-2.54-6.34a57.48,57.48,0,0,0-5-10.26,9.66,9.66,0,0,0-5.57-4.32A11.47,11.47,0,1,0,64.69,54C67.87,54.33,71,54.07,73.64,54.2Zm31.4,0c2.39-.14,5.43.07,8.48-.15a11.43,11.43,0,0,0,10.3-12.59A11.24,11.24,0,0,0,115,31.58c-4.78-1-8.88.08-11.83,4.86C99.92,41.7,98,47.55,95.63,53.21c-.38.92.2,1,.9,1C99.14,54.19,101.76,54.2,105,54.2Z"/></svg>