<svg id="Layer_1" data-name="Layer 1" xmlns="http://www.w3.org/2000/svg" viewBox="0 0 178.58 178.58"><defs><style>.cls-1{fill:#2c7732;}</style></defs><title>grilovani</title><path class="cls-1" d="M174.41,40.83l-12.28-10.2,11-13.28a4.5,4.5,0,1,0-6.92-5.75l-9,10.83a19.74,19.74,0,0,0-11.5-8c-3.76-.92-7.59-.66-12.42.86a135.56,135.56,0,0,1-24.75,5.19,2.63,2.63,0,0,1-.5,0,2.72,2.72,0,0,1,0-.48c.06-2.74,0-5.53,0-8.22,0-1.08,0-2.15,0-3.22,0-4.8-.43-5.25-5.11-5.34h-.22a3.38,3.38,0,0,0-2.48.75,3.33,3.33,0,0,0-.75,2.48c0,2.5,0,5,0,7.51,0,2.14,0,4.29,0,6.43,0,.64-.12.83-.16.87a1.48,1.48,0,0,1-.78.16q-7.14,0-14.29,0h0a1.17,1.17,0,0,1-.68-.13s-.15-.18-.14-.8c0-2.82,0-5.69,0-8.46V8.74c0-4.92-.44-5.38-5.18-5.46h-.22A3.23,3.23,0,0,0,75.72,4,3.33,3.33,0,0,0,75,6.56c0,2.38,0,4.81,0,7.16,0,2,0,4.07,0,6.11a1.71,1.71,0,0,1-.07.65,1.3,1.3,0,0,1-.57,0c-1-.15-2-.28-3-.42s-2.12-.28-3.18-.45a161.32,161.32,0,0,1-17-3.89l-3.76-1a19.15,19.15,0,0,0-18.36,4.8L20.28,7.84a4.5,4.5,0,1,0-7.19,5.41L22.69,26,8.9,36.39a4.5,4.5,0,1,0,5.42,7.19l8.93-6.72A19.74,19.74,0,0,0,35.77,52a114,114,0,0,0,11,3.26A168.9,168.9,0,0,0,74.23,60c.69,0,.8.12.78.92-.06,2.42,0,4.88,0,7.26.07,8,4.27,13.92,11.82,16.57.52.18.56.28.56.76,0,6.85,0,14.16,0,21.51a1.19,1.19,0,0,1-.08.57,1.25,1.25,0,0,1-.59.07c-.92,0-1.84,0-2.76,0s-2,0-2.95,0a2.88,2.88,0,0,0-2.21.68,3.1,3.1,0,0,0-.77,2.32q0,12.72,0,25.44,0,13.58,0,27.15a14.4,14.4,0,0,0,3.62,10.09,16.52,16.52,0,0,0,6.78,4.14l.17.07h5.75l.6-.25c.25-.1.5-.21.76-.29A13.23,13.23,0,0,0,105,164.7q.06-16,0-32,0-11.19,0-22.39a2.66,2.66,0,0,0-.68-2,2.84,2.84,0,0,0-2-.66c-.69,0-1.37,0-2.06,0-1.1,0-2.23,0-3.36,0-.68.05-.84-.09-.86-.1s-.17-.21-.16-1c.06-6.6.06-13.45,0-20.35,0-1.08.18-1.36,1.17-1.69a16.11,16.11,0,0,0,11-15c0-2.37.07-5.5,0-8.61,0-.66.06-.75.73-.82,2-.2,4-.43,6-.67a164.89,164.89,0,0,0,32.89-7.41,19,19,0,0,0,11.86-11.71l9.11,7.56a4.5,4.5,0,1,0,5.75-6.92ZM83.55,61v0a4.33,4.33,0,0,1,.52,0h9.69c1.67,0,3.39,0,5.09,0H99c.54,0,.55.07.55.07s.07.12.06.5c0,1.22,0,2.44,0,3.66,0,1.44,0,2.92-.05,4.38a7.92,7.92,0,0,1-15.68,1,31.67,31.67,0,0,1-.28-6.34C83.56,63.15,83.58,62.06,83.55,61ZM152,34.8A10.56,10.56,0,0,1,144.41,44a160.13,160.13,0,0,1-28.88,6.67A180.24,180.24,0,0,1,90,52.4h-.12a170.25,170.25,0,0,1-50-8c-4.72-1.5-7.38-4.5-8.15-9.17a10.85,10.85,0,0,1,3.41-9.77,10.65,10.65,0,0,1,9.83-2.57c2.1.52,4.23,1.1,6.29,1.66,3.9,1.06,7.93,2.16,12,2.95a153.53,153.53,0,0,0,36.66,2.45,144.62,144.62,0,0,0,37-6.77c4.21-1.35,7.76-.86,10.88,1.49a10.34,10.34,0,0,1,4.18,6.59,4.45,4.45,0,0,0,.18,1.77A15.72,15.72,0,0,1,152,34.8ZM96.5,139.69h0v7.68q0,8.49,0,17a4.42,4.42,0,0,1-2.8,4.27,4.71,4.71,0,0,1-5.26-.67c-1.62-1.32-1.85-3.25-1.85-5.14V128.34c0-3.78,0-7.68,0-11.53a1.59,1.59,0,0,1,.07-.68,1.35,1.35,0,0,1,.61-.06c2.89.08,5.79.08,8.62,0a1.26,1.26,0,0,1,.58.06,1.66,1.66,0,0,1,.09.72q0,8.94,0,17.88Z"/></svg>