<svg id="Layer_1" data-name="Layer 1" xmlns="http://www.w3.org/2000/svg" viewBox="0 0 178.58 178.58"><defs><style>.cls-1{fill:#f9cbcc;}</style></defs><title>srdce</title><polygon class="cls-1" points="112.81 70.49 112.81 61.12 103.44 61.12 103.32 61.12 93.95 61.12 93.95 70.49 84.7 70.49 84.7 61.12 75.33 61.12 75.21 61.12 65.84 61.12 65.84 70.49 56.4 70.49 56.4 79.86 56.4 79.98 56.4 89.35 65.84 89.35 65.84 98.72 75.21 98.72 75.21 108.09 84.58 108.09 84.58 117.46 94.07 117.46 94.07 108.09 103.44 108.09 103.44 98.72 112.81 98.72 112.81 89.35 122.18 89.35 122.18 79.98 122.18 79.86 122.18 70.49 112.81 70.49"/></svg>