<svg id="Layer_1" data-name="Layer 1" xmlns="http://www.w3.org/2000/svg" viewBox="0 0 178.58 178.58"><defs><style>.cls-1{fill:#2c7732;}</style></defs><title>krajeni</title><path class="cls-1" d="M5.73,41.19a14.23,14.23,0,0,1,2.34-2.91q8-8,16-16c2.76-2.76,5.4-2.78,8.13-.05Q98,88,163.77,153.75c1.74,1.75,2.63,3.67,1.65,6s-2.95,3-5.34,3c-34-.56-64.13-11.56-90.3-33.26-9.44-7.83-17.62-17-26.35-25.53a5,5,0,0,1-1-6c1.48-3.39,2.89-6.8,4.38-10.18a1.62,1.62,0,0,0-.38-2.07Q38,77.36,29.62,68.93L7.75,47.07a11,11,0,0,1-2-2.76ZM148,152.33l.43-.58a11.78,11.78,0,0,1-1.51-1.08c-4.14-4.11-8.25-8.24-12.38-12.36q-31.18-31.2-62.37-62.42c-1.12-1.13-1.72-1.13-2.82,0-3.64,3.79-7.4,7.47-11.13,11.17a6.59,6.59,0,0,0-1.48,2.17c-1.14,2.74-2.23,5.51-3.54,8.16-.71,1.45-.39,2.28.7,3.34,4.33,4.2,8.58,8.5,12.84,12.78A134.83,134.83,0,0,0,77.08,123a131.86,131.86,0,0,0,60.57,28A79.43,79.43,0,0,0,148,152.33ZM17.58,42.73a1.52,1.52,0,0,0,.61,1q9.89,9.87,19.74,19.76c.66.66,1.11.69,1.78,0q4.55-4.62,9.16-9.16c.61-.6.68-1,0-1.64q-10-10-20-20c-.63-.64-1-.61-1.64,0-3,3.1-6.06,6.15-9.09,9.23C18,42.22,17.76,42.52,17.58,42.73Zm46,25.12a1.14,1.14,0,0,0-.45-.9c-2-2-4-4-5.95-6-.56-.56-.94-.39-1.42.09q-4.61,4.65-9.27,9.27c-.59.59-.71,1,0,1.67q3,2.88,5.85,5.84c.61.63,1,.46,1.52-.08,3-3.07,6.1-6.11,9.14-9.17C63.22,68.35,63.43,68.05,63.6,67.85Z"/></svg>