<svg id="Layer_1" data-name="Layer 1" xmlns="http://www.w3.org/2000/svg" viewBox="0 0 287.91 287.91"><defs><style>.cls-1{fill:#2c7732;}</style></defs><title>monogram</title><path class="cls-1" d="M29.45,199.27c8,12,30.15,15.71,43.05,9.34,8.26-4,13.29-7.22,25.57-25.84,9.9,2.77,20.14,5.65,29.93,8.37a.36.36,0,0,0,.42-.17l4.47-7.73a.38.38,0,0,0-.21-.55c-10-2.81-20.35-5.78-30.2-8.59.62-1.11,2.07-3.47,3.36-5.65,1.28-2.35,56.43-100.16,69-119.07,3.59-5.4,8.06-11.2,14.35-13.55a18.29,18.29,0,0,1,13.31.63,29.66,29.66,0,0,1,5.81,3.15c1.85,1.28,3.41,3,5.41,4,1.68.87,4.08.87,5.23-.87,1.85-2.8-.82-5.7-2.81-7.51A43.65,43.65,0,0,0,207.5,29a25.36,25.36,0,0,0-2.82-1.27c-15.29-5.64-29.56,2.22-37.88,16.08-8.76,12.36-69.73,120-74,127.52A208.32,208.32,0,0,0,70,167.16c-11.56-.94-21.72-1.89-31.54,3.59-13.07,7.27-14.08,20.85-9,28.52m27.86-23.72c8.83.29,15.58,1.12,30.66,4.59-9.44,15.21-19.66,25.5-39.48,20.8-5.19-1.67-10.61-4.75-11.33-11.4-.28-12,13.4-13.76,20.15-14"/><path class="cls-1" d="M159.43,199.43l4.56-8.14a.4.4,0,0,1,.46-.2c6.56,1.69,11.87,2.83,15.26,3.63,23.62,5.6,31-3.88,34.19-23.15.35-2.15.11-4.52,1.13-6.52a3.75,3.75,0,0,1,4.41-1.85c4.15,1.2,3.32,6.62,3.12,9.84a46.84,46.84,0,0,1-3.49,15.16c-7.94,17-23.61,21.63-40.92,16.78-3-.59-9.54-2.32-18.45-4.9a.46.46,0,0,1-.27-.65"/><path class="cls-1" d="M258.46,88.65c-8-12-30.15-15.72-43-9.35-8.26,4-13.28,7.22-25.57,25.84-9.9-2.77-20.13-5.65-29.93-8.37a.36.36,0,0,0-.42.18L155,104.67a.38.38,0,0,0,.21.55c10,2.81,20.35,5.78,30.2,8.59-.62,1.12-2.06,3.47-3.35,5.65-1.29,2.35-56.44,100.16-69,119.07-3.59,5.4-8,11.2-14.35,13.55a18.29,18.29,0,0,1-13.31-.63,30.45,30.45,0,0,1-5.81-3.14c-1.84-1.29-3.41-3-5.4-4.05-1.69-.88-4.09-.87-5.24.87-1.85,2.79.82,5.69,2.81,7.5a43.7,43.7,0,0,0,8.64,6.31,27.26,27.26,0,0,0,2.82,1.26c15.29,5.64,29.56-2.21,37.88-16.08,8.76-12.36,69.74-120,74-127.52a209,209,0,0,0,22.79,4.15c11.55.94,21.71,1.9,31.53-3.59,13.07-7.26,14.08-20.85,9-28.51M230.6,112.36c-8.82-.28-15.58-1.12-30.65-4.59,9.43-15.21,19.65-25.5,39.47-20.8,5.19,1.68,10.61,4.75,11.33,11.4.28,12-13.4,13.76-20.15,14"/><path class="cls-1" d="M128.48,88.48l-4.55,8.14a.43.43,0,0,1-.47.21c-6.56-1.69-11.87-2.84-15.25-3.64-23.62-5.59-31,3.88-34.19,23.16-.36,2.14-.12,4.51-1.14,6.51a3.74,3.74,0,0,1-4.41,1.85c-4.15-1.2-3.31-6.62-3.11-9.83a46.56,46.56,0,0,1,3.48-15.17c7.94-17,23.61-21.63,40.92-16.78,3,.59,9.54,2.33,18.45,4.9a.46.46,0,0,1,.27.65"/></svg>