<svg id="Layer_1" data-name="Layer 1" xmlns="http://www.w3.org/2000/svg" xmlns:xlink="http://www.w3.org/1999/xlink" viewBox="0 0 133.71 118.99"><defs><style>.cls-1{fill:none;}.cls-2{clip-path:url(#clip-path);}.cls-3{fill:#2c7732;}</style><clipPath id="clip-path"><rect class="cls-1" width="133.71" height="118.99"/></clipPath></defs><title>zazemi</title><g class="cls-2"><path class="cls-3" d="M123.56,37.72c-.1-1.11-.12-2.46-.35-3.77-1.85-10.51-7.58-18.13-17.6-21.9s-19.23-2-27.47,4.8a96.92,96.92,0,0,0-7.15,7c-2.61,2.66-5.53,2.67-8.12.1C60.89,22,59,20,57,18.1c-6.57-6.26-14.43-9-23.36-7.53-10.82,1.76-18.36,8-21.87,18.4S10.18,49.29,18,57.28c15.76,16.2,31.81,32.12,47.72,48.18.83.83,1.36.93,2.24,0q24-24.21,48-48.37c5.2-5.28,7.44-11.86,7.66-19.41M37.67,0A37.11,37.11,0,0,1,64.23,10.92c2.6,2.53,2.58,2.53,5.25-.06a37,37,0,0,1,30-10.7,37.51,37.51,0,0,1,33.21,29.17c3.07,14-.7,26.18-10.76,36.35Q102.35,85.43,82.7,105.1C78.81,109,75,113,71.08,116.85c-2.82,2.83-5.68,2.85-8.48,0Q37.13,91.27,11.66,65.63C5,58.92.76,51,.12,41.5-.95,25.87,5.24,13.65,18.56,5.27A34.87,34.87,0,0,1,37.67,0"/></g></svg>