<svg id="Layer_1" data-name="Layer 1" xmlns="http://www.w3.org/2000/svg" viewBox="0 0 178.58 178.58"><defs><style>.cls-1{fill:#2e7a3c;}</style></defs><title>zazemi</title><path class="cls-1" d="M146,67.52a36.47,36.47,0,0,0-.35-3.77c-1.85-10.51-7.57-18.13-17.59-21.9s-19.24-2-27.48,4.79c-2.58,2.14-4.79,4.67-7.14,7-2.62,2.65-5.54,2.66-8.13.1-2-2-3.88-4-5.9-5.89C72.83,41.64,65,38.92,56,40.37c-10.82,1.76-18.35,8-21.86,18.4S32.62,79.08,40.4,87.08c15.77,16.19,31.82,32.12,47.72,48.17.84.84,1.37.94,2.25.05,16-16.14,32-32.21,48-48.38,5.21-5.27,7.44-11.85,7.66-19.4M60.1,29.82a37.1,37.1,0,0,1,26.56,10.9c2.6,2.53,2.58,2.52,5.25-.06A37,37,0,0,1,121.9,30a37.54,37.54,0,0,1,33.21,29.18c3.07,14-.7,26.18-10.77,36.35q-19.56,19.76-39.21,39.42c-3.88,3.9-7.73,7.84-11.61,11.75-2.82,2.83-5.69,2.85-8.48,0Q59.55,121.07,34.09,95.43C27.41,88.72,23.2,80.75,22.55,71.3,21.49,55.66,27.68,43.45,41,35.07A34.93,34.93,0,0,1,60.1,29.82"/></svg>