<svg id="Layer_1" data-name="Layer 1" xmlns="http://www.w3.org/2000/svg" viewBox="0 0 178.58 178.58"><defs><style>.cls-1{fill:#2c7732;}</style></defs><title>obcerstveni</title><path class="cls-1" d="M89.24,135.07h16.35c1.57,0,1.63-.1,1.33-1.68-.49-2.52-1-5-1.42-7.55-.19-1.27-.67-1.46-1.84-1.13a53.34,53.34,0,0,1-29-.09c-1-.3-1.36,0-1.53,1-.44,2.62-1,5.22-1.47,7.83-.29,1.55-.22,1.65,1.37,1.65H89.24m.08-58.25q-21.16,0-42.34,0c-3.83,0-3.15-.06-2.62,3.11a45.55,45.55,0,0,0,90-1.05c.29-2.06.29-2.06-1.77-2.06H89.32m-28.9,88.83c-2.63-1.69-3.17-2.81-2.59-5.84q3.51-18.5,7.08-37a2.08,2.08,0,0,0-1.2-2.69c-16.05-9-25.48-22.6-28.16-40.83a42,42,0,0,1-.49-6.44c0-2.95,1.78-4.69,4.73-4.69h99c3,0,4.78,1.75,4.72,4.83a53.81,53.81,0,0,1-12.9,34.44,51.71,51.71,0,0,1-16.09,12.89,1.62,1.62,0,0,0-.93,2.09q2.28,11.66,4.51,23.33c.89,4.68,1.79,9.35,2.66,14,.56,3,0,4.15-2.59,5.84h-2.75a5.07,5.07,0,0,1-3.13-4.19c-1-5.4-2.08-10.79-3.06-16.19-.21-1.15-.63-1.58-1.86-1.57q-18.09.08-36.17,0c-1.23,0-1.67.42-1.87,1.56-1,5.41-2.07,10.79-3,16.2a5.06,5.06,0,0,1-3.12,4.19Z"/><path class="cls-1" d="M115.82,36.13a14.76,14.76,0,0,1-4,9.78c-.47.56-1,1.1-1.38,1.7a4.93,4.93,0,0,0,.37,6.65,5.66,5.66,0,0,1,1.65,2.94,4.25,4.25,0,0,1-2.24,4.48,4.36,4.36,0,0,1-5-.72,13.56,13.56,0,0,1-3.76-14.67,17.78,17.78,0,0,1,3.41-5.6A14.79,14.79,0,0,0,106,39.31c1.66-2.5,1.51-4.63-.47-6.86A5,5,0,0,1,104,29.32a4.19,4.19,0,0,1,2.35-4.16,4,4,0,0,1,4.73.63,13.39,13.39,0,0,1,4.72,10.34"/><path class="cls-1" d="M96.84,36a14.82,14.82,0,0,1-4,9.86c-.44.52-.92,1-1.31,1.59-1.71,2.47-1.61,4.58.34,6.87A5.5,5.5,0,0,1,93.48,57a4.25,4.25,0,0,1-2.06,4.57,4.35,4.35,0,0,1-5.1-.6,13.65,13.65,0,0,1-3.81-14.67,17.41,17.41,0,0,1,3.68-5.9A7.51,7.51,0,0,0,88,37.25a4.87,4.87,0,0,0-1.51-4.88,4.47,4.47,0,0,1-1.32-4.64,4.24,4.24,0,0,1,6.89-2A13.14,13.14,0,0,1,96.84,36"/><path class="cls-1" d="M77.87,35.82a15,15,0,0,1-4,10.06c-.44.53-.91,1-1.3,1.59-1.72,2.47-1.62,4.58.33,6.87a5.62,5.62,0,0,1,1.59,2.82,4.25,4.25,0,0,1-2.21,4.5,4.36,4.36,0,0,1-5.08-.77,13.61,13.61,0,0,1-2.49-17.18,20.67,20.67,0,0,1,2.55-3.4c2.27-2.47,2.73-5.48.09-8.17a4.31,4.31,0,0,1,.08-6.36c1.81-1.6,4.37-1.39,6.25.55,2.62,2.7,4.23,5.84,4.15,9.49"/></svg>