<svg id="Layer_1" data-name="Layer 1" xmlns="http://www.w3.org/2000/svg" viewBox="0 0 178.58 178.58"><defs><style>.cls-1{fill:#2c7732;}</style></defs><title>odjezd1</title><path class="cls-1" d="M27.3,96.76c.39-2.36.7-4.74,1.28-7.07A53.24,53.24,0,0,1,33.15,78,148,148,0,0,0,45.78,44.59c.31-1.31.62-2.62.91-3.93a14,14,0,0,1,27.52,1.22,15.44,15.44,0,0,1-.48,5.75c-1.13,4.75-2.29,9.49-3.44,14.24a1.85,1.85,0,0,0-.11,1.18c.55-.06.8-.54,1.12-.86Q87.19,46.33,103,30.47c4.76-4.74,11.59-5.33,16.81-1.49a12.07,12.07,0,0,1,3.91,4.57c.42.91.78,1.13,1.78.69a12.91,12.91,0,0,1,18,13.14c-.11,1,.5,1.07,1.12,1.28a13,13,0,0,1,9.1,12.61,12.81,12.81,0,0,1-3.82,8.83c-1.33,1.35-2.66,2.71-4,4-.73.69-.68,1,.21,1.55a12.41,12.41,0,0,1,6.45,9.71c.52,4.45-1.16,8-4.26,11.13q-12,11.93-24,23.88c-5.23,5.2-10.36,10.5-15.67,15.61a47,47,0,0,1-28.95,13.22,48.18,48.18,0,0,1-50-32.63,65.8,65.8,0,0,1-2.32-10.46Zm7.9,4.63a40.11,40.11,0,0,0,68.89,27.82Q116,117.27,128,105.35q7.47-7.45,15-14.9a4.78,4.78,0,0,0,1.45-5,4.69,4.69,0,0,0-7.94-1.81q-8.1,8-16.15,16c-1.38,1.37-2.72,2.77-4.13,4.1a3.93,3.93,0,0,1-5.83-.31,4,4,0,0,1,.5-5.67Q121,87.49,131.29,77.28c4.3-4.29,8.61-8.56,12.88-12.86a4.69,4.69,0,0,0,0-6.88c-2-2-4.81-1.9-7,.25Q122.54,72.34,107.9,86.92a10.76,10.76,0,0,1-1.1,1,3.92,3.92,0,0,1-4,.55,3.75,3.75,0,0,1-2.42-3.28,4.37,4.37,0,0,1,1.59-3.68q13-12.87,25.87-25.78c2.12-2.12,4.27-4.2,6.34-6.35a4.7,4.7,0,0,0-.17-6.89c-2-1.9-4.81-1.8-7,.36-4,3.93-7.94,7.92-11.9,11.88Q105,64.86,94.87,75a4,4,0,0,1-5.86.21,4.11,4.11,0,0,1,.21-5.89c.56-.57,1.13-1.13,1.7-1.7L115.49,43a4.8,4.8,0,0,0-3.9-8.36,5.29,5.29,0,0,0-3.19,1.88L66.67,78.25c-.36.36-.71.73-1.09,1.07-1.65,1.48-3.36,1.74-5,.78a4.1,4.1,0,0,1-1.86-4.8c.56-2.42,1.16-4.83,1.74-7.24,1.83-7.57,3.68-15.14,5.5-22.71.86-3.61-.93-6.73-4.28-7.56S55.4,39,54.51,42.61c-.35,1.43-.66,2.87-1,4.31a159.91,159.91,0,0,1-13.82,36A40.38,40.38,0,0,0,35.2,101.39Z"/><path class="cls-1" d="M156.82,128.52a4.3,4.3,0,0,1-.56,2.11,44,44,0,0,1-24.83,23.31c-2.51,1-4.76.09-5.63-2.17s.26-4.36,2.7-5.31a36.08,36.08,0,0,0,20.55-19.41,4.07,4.07,0,0,1,4.68-2.54A4,4,0,0,1,156.82,128.52Z"/><path class="cls-1" d="M140.37,117.17a4,4,0,0,1,4.1,4.75,12,12,0,0,1-1.45,3.35,33.52,33.52,0,0,1-19,16.22,4,4,0,0,1-4.42-6.41,4.44,4.44,0,0,1,1.9-1.2,25.8,25.8,0,0,0,15.32-14.16A4,4,0,0,1,140.37,117.17Z"/></svg>