<svg id="Layer_1" data-name="Layer 1" xmlns="http://www.w3.org/2000/svg" viewBox="0 0 178.58 178.58"><defs><style>.cls-1{fill:#2c7732;}</style></defs><title>odjezd2</title><path class="cls-1" d="M35.47,87.2a71.24,71.24,0,0,1,1.6-9.51A58.62,58.62,0,0,1,98,33.46a56.27,56.27,0,0,1,26.91,8.94c1,.65,1.49.58,2.1-.43.84-1.4,1.84-2.7,2.78-4A1.7,1.7,0,0,1,131.5,37c.75.14,1,.79,1.19,1.4C134.15,43.6,135.62,48.78,137,54a2.66,2.66,0,0,1-2.42,3.42c-4.3.43-8.6.79-12.91,1.17-1.09.1-2.19.22-3.28.23-1.64,0-2.21-1-1.33-2.38s1.92-2.92,3-4.32c.56-.76.49-1.15-.34-1.67a46.85,46.85,0,0,0-19.55-7c-13.26-1.54-25.4,1.5-36.06,9.69a48.52,48.52,0,0,0-16.79,53.14c4.24,13.47,12.84,23.19,25.42,29.46A45.82,45.82,0,0,0,84,139.51a15,15,0,0,1,1.87.47A4.78,4.78,0,0,1,89,145.29a4.65,4.65,0,0,1-4.63,3.93,27.49,27.49,0,0,1-7.22-1.51,58.66,58.66,0,0,1-40-41.67A51.32,51.32,0,0,1,35.62,97a5.23,5.23,0,0,0-.15-.66Z"/><path class="cls-1" d="M86.92,76.28c0-6,0-11.91,0-17.87,0-1.72.43-3.24,2.06-4.15a3.85,3.85,0,0,1,5.77,3.24c0,.42,0,.84,0,1.25,0,10.21,0,20.41,0,30.61a1.93,1.93,0,0,0,1.24,2c9.52,4.88,19,9.81,28.51,14.7,1.47.76,2.6,1.74,2.78,3.47a3.68,3.68,0,0,1-1.63,3.54,3.79,3.79,0,0,1-4.19.25l-6.17-3.17c-8.76-4.53-17.5-9.1-26.3-13.55a3.28,3.28,0,0,1-2.1-3.48C87,87.51,86.92,81.89,86.92,76.28Z"/><path class="cls-1" d="M121.13,142.87a5,5,0,0,1-5.06-3.08,4.78,4.78,0,0,1,1.45-5.35,21,21,0,0,1,4-2.42,4.76,4.76,0,0,1,5.48,1.26,4.57,4.57,0,0,1,.45,5.6A10.87,10.87,0,0,1,121.13,142.87Z"/><path class="cls-1" d="M144.08,115.56a4.78,4.78,0,0,1-4.82-6.11,29.71,29.71,0,0,1,1.29-3.64,4.76,4.76,0,0,1,9,2.9,17.47,17.47,0,0,1-1.56,4.38A4.42,4.42,0,0,1,144.08,115.56Z"/><path class="cls-1" d="M134.77,131.23a4.56,4.56,0,0,1-4.38-2.45,4.44,4.44,0,0,1,.22-5,28.62,28.62,0,0,1,2.63-3.28,4.76,4.76,0,0,1,7.89,4.9,13.36,13.36,0,0,1-3.88,5A3.58,3.58,0,0,1,134.77,131.23Z"/><path class="cls-1" d="M103.86,149.2a4.85,4.85,0,0,1-5.08-3.8,4.72,4.72,0,0,1,2.86-5.37,16.8,16.8,0,0,1,5-1.07,4.77,4.77,0,0,1,2.08,9.09A19,19,0,0,1,103.86,149.2Z"/><path class="cls-1" d="M152.12,91.39c0,.56,0,1.13,0,1.7a4.75,4.75,0,0,1-9.37,1,12.89,12.89,0,0,1-.07-5.53,4.71,4.71,0,0,1,5-3.7,4.81,4.81,0,0,1,4.4,4.57c0,.65,0,1.29,0,1.94Z"/><path class="cls-1" d="M143.25,67.08a4.3,4.3,0,0,1,3.94,1.73,11.84,11.84,0,0,1,2.19,6.24A4.74,4.74,0,0,1,141,78a11.73,11.73,0,0,1-2.17-6A4.51,4.51,0,0,1,143.25,67.08Z"/></svg>