<svg id="Layer_1" data-name="Layer 1" xmlns="http://www.w3.org/2000/svg" viewBox="0 0 178.58 178.58"><defs><style>.cls-1{fill:#f9cbcc;}.cls-2{fill:#fff;}.cls-3{fill:#010202;}</style></defs><title>oggy</title><rect class="cls-1" x="108.01" y="112.69" width="9.36" height="9.36"/><polygon class="cls-2" points="79.94 84.62 70.58 84.62 70.58 93.98 70.58 103.33 79.94 103.33 89.3 103.33 89.3 93.98 79.94 93.98 79.94 84.62"/><polygon class="cls-2" points="126.73 93.98 126.73 84.62 117.37 84.62 117.37 93.98 117.37 103.33 126.73 103.33 136.09 103.33 136.09 93.98 126.73 93.98"/><path class="cls-3" d="M145.44,79.08V60.37h-9.35V28.47h-9.36v9.36h-9.36v9.36H61.22V37.83H51.86V28.47H42.51v31.9H33.15V79.08H23.79v28.08h9.36v18.71h9.36v5.54h9.35v9.36H70.58v9.35H108v-9.35h18.72v-9.36h9.36v-5.54h9.35V107.16h9.35V79.08Zm-28.07,43H108v-9.39h9.36ZM89.3,103.33H70.58V84.62h9.36V94H89.3Zm37.43,0h-9.36V84.62h9.36V94h9.36v9.35Z"/></svg>