<svg id="Layer_1" data-name="Layer 1" xmlns="http://www.w3.org/2000/svg" viewBox="0 0 131.01 121.65"><defs><style>.cls-1{fill:#f9cbcc;}.cls-2{fill:#fff;}.cls-3{fill:#010101;}</style></defs><title>oggy</title><rect class="cls-1" x="84.22" y="84.22" width="9.36" height="9.36"/><polygon class="cls-2" points="56.15 56.15 46.79 56.15 46.79 65.51 46.79 74.86 56.15 74.86 65.51 74.86 65.51 65.51 56.15 65.51 56.15 56.15"/><polygon class="cls-2" points="102.94 65.51 102.94 56.15 93.58 56.15 93.58 65.51 93.58 74.86 102.94 74.86 112.3 74.86 112.3 65.51 102.94 65.51"/><path class="cls-3" d="M121.65,50.61V31.9H112.3V0h-9.36V9.36H93.58v9.36H37.43V9.36H28.07V0H18.72V31.9H9.36V50.61H0V78.69H9.36V97.4h9.36v5.54h9.35v9.36H46.79v9.35H84.22V112.3h18.72v-9.36h9.36V97.4h9.35V78.69H131V50.61Zm-28.07,43H84.22V84.22h9.36ZM65.51,74.86H46.79V56.15h9.36v9.36h9.36Zm37.43,0H93.58V56.15h9.36v9.36h9.36v9.35Z"/></svg>