<svg id="Layer_1" data-name="Layer 1" xmlns="http://www.w3.org/2000/svg" viewBox="0 0 178.58 178.58"><defs><style>.cls-1{fill:#2c7732;stroke:#2c7732;stroke-miterlimit:10;stroke-width:3px;}</style></defs><title>ovce</title><path class="cls-1" d="M68.29,24.53a18.11,18.11,0,0,1,6.31,1.19A1.92,1.92,0,0,0,77,25.27c5.94-6,18.74-6,24.66,0a1.85,1.85,0,0,0,2.23.46c9.34-3.18,17.64.3,21.94,9.2a2,2,0,0,0,1.9,1.25c9.45.89,16.78,6.55,17.15,17.11A1.7,1.7,0,0,0,146,55c8.87,4.33,12.25,12.31,9.21,21.78a2,2,0,0,0,.47,2.38,14.12,14.12,0,0,1,2.09,2.76c3.55,5.85,2.86,11.91-2,17.34a2.2,2.2,0,0,0-.55,2.51c2.77,8.44.13,17.66-9.26,21.76a1.65,1.65,0,0,0-1,1.71c-.39,10.49-7.61,16.12-17,17.05a2.25,2.25,0,0,0-2.13,1.44c-4.15,8.68-12.6,12.21-21.71,9.07a2.14,2.14,0,0,0-2.51.54c-6.55,6-17.89,6-24.42,0a2.13,2.13,0,0,0-2.51-.49c-9,3.1-17.49-.41-21.63-9a2.49,2.49,0,0,0-2.37-1.55c-9.2-1-16.48-6.52-16.82-17.09a1.64,1.64,0,0,0-1.1-1.68c-9.25-4-12-13.24-9.25-21.64a2.23,2.23,0,0,0-.54-2.65,14.45,14.45,0,0,1-2.06-2.77C17.32,90.6,18,84.65,22.88,79.25a2.19,2.19,0,0,0,.53-2.5C20.62,68.36,23.33,59,32.68,55a1.52,1.52,0,0,0,1-1.56C34,42.72,41.61,37,51.07,36.21a1.88,1.88,0,0,0,1.72-1.29c2.41-4.83,6-8.31,11.29-9.84A14.54,14.54,0,0,1,68.29,24.53Zm71.07,29.76c.17-6.73-3.16-10.94-9.73-12.32a21.1,21.1,0,0,0-4.68-.51,3,3,0,0,1-3.07-2,22,22,0,0,0-3.22-5.57A10,10,0,0,0,110.73,30a14.76,14.76,0,0,0-7.12,1.7c-1.37.73-2.73.8-3.69-.5C97,27.28,93,26,88.32,26.24a11.75,11.75,0,0,0-8.88,4.07c-2,2.3-2.35,2.32-5.08,1.13-6.8-3-13-1.66-16.27,5.44-1.6,3.48-3.65,4.68-7.32,4.9C43,42.25,38.89,47.17,39.19,55c.12,3.17-.14,3.46-3.14,4.52-4.5,1.58-8.92,5.27-8.16,11.95a20.6,20.6,0,0,0,1.42,5.63,3.41,3.41,0,0,1-1.06,4.47,13.86,13.86,0,0,0-3.11,3.74,7.08,7.08,0,0,0,0,8,15.94,15.94,0,0,0,3.23,3.85,3.19,3.19,0,0,1,1,4.06,25.14,25.14,0,0,0-1,3.15c-1.7,6.55.44,11.9,6.44,14.07,3.61,1.31,4.63,3.08,4.45,6.76-.26,5.53,3,9.45,8.31,11a22.65,22.65,0,0,0,6.06.83,3,3,0,0,1,3.06,2A21.68,21.68,0,0,0,60,144.75a9.93,9.93,0,0,0,7.83,3.75A14.77,14.77,0,0,0,75,146.79c1.37-.72,2.73-.79,3.69.51,2.92,3.95,6.88,5.2,11.6,5a11.82,11.82,0,0,0,9-4.19c1.81-2.13,2.33-2.2,4.84-1.07,6.89,3.07,13.21,1.73,16.48-5.52,1.57-3.48,3.69-4.53,7.24-4.75,7.7-.48,11.85-5.37,11.59-13-.11-3.41,0-3.56,3.29-4.71,5.62-2,8.52-6.3,8-12.07a19.37,19.37,0,0,0-1.44-5.63,3.25,3.25,0,0,1,1-4.2A14.79,14.79,0,0,0,153.61,93a7,7,0,0,0,0-7.47,15.19,15.19,0,0,0-3.4-4.12,3.22,3.22,0,0,1-1-4.07,24.62,24.62,0,0,0,1.08-3.45c1.68-7.2-1.2-12.26-8.23-14.54l-.3-.1c-1.89-.64-2.42-1.38-2.39-3.36C139.36,55.34,139.36,54.82,139.36,54.29Z"/><path class="cls-1" d="M44.84,70.55c2,0,4,0,6,0,2.31,0,2.9.52,3.61,2.7,1.65,5,4.53,9,10,10.08a17.29,17.29,0,0,0,9.76-1.09,4.5,4.5,0,0,1,5.18.9A22.65,22.65,0,0,0,85.67,87a8.36,8.36,0,0,0,6.58.22,20.31,20.31,0,0,0,6.51-3.79,5.15,5.15,0,0,1,6-1.1,16.49,16.49,0,0,0,9.29,1c5.18-1,8.1-4.59,9.81-9.29,1.24-3.4,1.28-3.52,4.92-3.52s7.36,0,11,0c2.1,0,3.06.73,3.38,2.73,1.63,10.07-2.67,21.39-15.67,24.59-2.23.56-4.5.3-6.75.27a2,2,0,0,0-2.4,1.79c-1.54,5.78-3.23,11.53-4.8,17.31C111,127,105,133.52,95.09,136A24.67,24.67,0,0,1,65.5,119c-1.88-6.29-3.6-12.63-5.28-19-.39-1.46-1-2-2.52-1.83a20.91,20.91,0,0,1-13-2.86c-5.57-3.39-8.47-8.42-9.43-14.74a22.8,22.8,0,0,1,0-6.9c.33-2.27,1.25-3.1,3.55-3.12Zm17.83,18c.11.57.15.88.23,1.17C65.48,99,68,108.24,70.7,117.45a18.71,18.71,0,0,0,12.49,12.8c3.47,1.19,3.42,1.15,3.5-2.45A2.25,2.25,0,0,0,85,125.24a8.72,8.72,0,0,1-4.52-4,2.61,2.61,0,0,1,1-3.79c1.24-.66,2.5-.34,3.56,1a5.11,5.11,0,0,0,4.42,2.29,5.33,5.33,0,0,0,4.17-2.45,2.6,2.6,0,0,1,3.75-.67,2.64,2.64,0,0,1,.59,3.77,7.41,7.41,0,0,1-3.75,3.48c-2.11.69-2.61,2-2.32,3.91a6.62,6.62,0,0,1,0,1.26c0,.81.34,1,1.08.83.4-.11.83-.14,1.23-.26,7.24-2,11.84-6.73,13.88-13.94,2.53-8.94,5-17.9,7.5-26.86.1-.36.42-.76,0-1.27a23.46,23.46,0,0,1-12.36-.94c-.67-.23-1.1.13-1.56.48A36.84,36.84,0,0,1,97.16,91c-4.6,2.54-9.32,3-14.2.77A35.26,35.26,0,0,1,76.9,88.1c-.46-.35-.89-.71-1.56-.48A24.06,24.06,0,0,1,62.67,88.52Zm70.88-12.69c-1,0-1.9.07-2.83,0a2,2,0,0,0-2.33,1.54,14,14,0,0,1-3.82,5.9c-2.7,2.23-2.88,5.44-3.81,8.39-.21.65.07,1,.74,1,1.88,0,3.78.26,5.63-.27a15.16,15.16,0,0,0,11-14.78c0-1.32-.33-2-1.77-1.83A26.72,26.72,0,0,1,133.55,75.83Zm-87.89,0c-1.65,0-2.75,0-3.85,0-.92,0-1.29.32-1.36,1.27C39.87,85.09,46.77,94,57,92.7c.52-.06,1.07-.22.85-.83-1-2.64-.75-5.73-3.18-7.84a11.31,11.31,0,0,1-3.45-4.64C50.17,76.29,48.33,75,45.66,75.83Z"/></svg>