<svg id="Layer_1" data-name="Layer 1" xmlns="http://www.w3.org/2000/svg" viewBox="0 0 178.58 178.58"><defs><style>.cls-1{fill:#2e7a3c;}</style></defs><title>fotografovani</title><path class="cls-1" d="M158.42,151.93l-1.23-1.24L56.28,49.55Q42,35.18,27.63,20.8l-.54-.54a4.7,4.7,0,0,0-6.27.06l-.37.37-.1.11a4.72,4.72,0,0,0,.1,6.13l.4.4,7.34,7.26c.54.53.44.81-.3,1C22.33,37.08,19,40.76,17.58,46.25v85.86a26.54,26.54,0,0,0,1.07,3c2.55,5.23,6.72,8,12.56,8q51.67,0,103.34,0a4.22,4.22,0,0,1,3.31,1.35c4.29,4.38,8.65,8.72,13,13.06.24.23.47.47.7.7a4.65,4.65,0,0,0,3,1.06,4.71,4.71,0,0,0,3-1.07h0l.64-.63h0a4.73,4.73,0,0,0,.26-5.64ZM66.56,75.42c.88-1.44.93-1.45,2.08-.29l34.6,34.68c1.18,1.18,1.17,1.22-.23,2.1A26.33,26.33,0,0,1,62.79,93,25.58,25.58,0,0,1,66.56,75.42ZM125.39,134h-93c-4.1,0-5.7-1.6-5.7-5.68V50c0-4,1.65-5.34,5.57-5.72,4.2-.41,7.1,1,9.93,4.11,5.63,6.11,11.65,11.86,17.56,17.7.95.93,1.07,1.53.25,2.65a34.85,34.85,0,0,0-6.59,23.52,36.2,36.2,0,0,0,24,30.9c11.59,3.91,22.43,2.28,32.44-4.72,1-.66,1.47-.7,2.31.16,4.64,4.74,9.35,9.41,14,14.11.29.29.56.61.94,1A3,3,0,0,1,125.39,134Z"/><path class="cls-1" d="M161,89.26q0,20.2,0,40.39a13.4,13.4,0,0,1-2.64,8c-.59.83-1.08,1-1.86.17-1.53-1.64-3.13-3.21-4.74-4.77a1.38,1.38,0,0,1-.4-1.84,5.77,5.77,0,0,0,.48-2.73V49.77c0-3.69-1.72-5.38-5.44-5.39H121.22c-3.29,0-4.81-1.37-5.23-4.69a4.51,4.51,0,0,0-4.7-4.27q-22,0-44.07,0c-2.76,0-4.42,1.62-4.74,4.36,0,.23,0,.47-.06.7-.13.63-.2,1.41-.86,1.65s-.93-.5-1.31-.87c-1.73-1.69-3.39-3.47-5.17-5.12a1.73,1.73,0,0,1-.35-2.45c2.61-4.71,6.51-7.42,12-7.44q22.53-.09,45.05,0c5.49,0,9.53,2.65,12,7.52a2.31,2.31,0,0,0,2.46,1.46c7,0,14.08,0,21.13,0A13.38,13.38,0,0,1,161,48.87q0,20.21,0,40.39Z"/><path class="cls-1" d="M125.12,89.17a32.9,32.9,0,0,1-2.24,12.75c-.52,1.42-.67,1.45-1.72.4-1.76-1.74-3.47-3.53-5.26-5.24a2.09,2.09,0,0,1-.69-2.23c3.57-15.17-7-29.8-21.79-32.13a23.41,23.41,0,0,0-9.43.33,2.63,2.63,0,0,1-2.94-.89c-1.58-1.72-3.28-3.32-4.92-5-1-1.06-1-1.22.4-1.73,11.8-4.17,23-2.93,33.29,4.22,9,6.26,13.94,15.11,15.26,26a5.46,5.46,0,0,1,0,.56v3Z"/><path class="cls-1" d="M143.07,57.74a4.57,4.57,0,1,1-4.62-4.57,4.43,4.43,0,0,1,4.62,4.57Z"/></svg>