<svg id="Layer_1" data-name="Layer 1" xmlns="http://www.w3.org/2000/svg" xmlns:xlink="http://www.w3.org/1999/xlink" viewBox="0 0 143.42 143.42"><defs><style>.cls-1{fill:none;}.cls-2{clip-path:url(#clip-path);}.cls-3{fill:#2c7732;}</style><clipPath id="clip-path"><rect class="cls-1" width="143.42" height="143.42"/></clipPath></defs><title>fotografovani</title><g class="cls-2"><path class="cls-3" d="M71.28,98.41a27.06,27.06,0,0,0,14.15-4.08c1.4-.89,1.41-.92.23-2.1q-17.3-17.36-34.6-34.69c-1.16-1.15-1.2-1.15-2.09.29a25.58,25.58,0,0,0-3.76,17.56,26.74,26.74,0,0,0,26.07,23m38.18,17.75c-.37-.4-.64-.72-.93-1-4.68-4.7-9.39-9.37-14-14.11-.84-.86-1.36-.82-2.31-.16-10,7-20.85,8.63-32.44,4.72a36.2,36.2,0,0,1-24-30.9,34.8,34.8,0,0,1,6.59-23.51c.82-1.13.69-1.72-.25-2.66-5.91-5.84-11.93-11.59-17.56-17.69-2.83-3.07-5.73-4.53-9.93-4.12-3.92.38-5.57,1.72-5.57,5.72V110.7c0,4.09,1.6,5.68,5.7,5.68h93.05a2.86,2.86,0,0,0,1.65-.22M0,5.94C1.71,4.22,3.5,2.57,5.11.76c1-1.12,1.6-.91,2.55.05Q23.14,16.43,38.7,32q51.57,51.71,103.16,103.4a12.45,12.45,0,0,0,.89.89c.66.57.54,1.05,0,1.62-1.87,1.83-3.71,3.7-5.56,5.55h-.56c-.43-.49-.85-1-1.31-1.45-5-5-10-10-15-15.09a4.22,4.22,0,0,0-3.31-1.35q-51.68,0-103.34,0c-5.84,0-10-2.77-12.56-8a26.54,26.54,0,0,1-1.07-3V28.66C1.44,23.17,4.75,19.49,10.31,18c.74-.2.84-.48.3-1L0,6.5Z"/><path class="cls-3" d="M143.41,71.68q0,20.19,0,40.39a13.36,13.36,0,0,1-2.65,8c-.58.83-1.07,1-1.85.16-1.53-1.63-3.13-3.2-4.74-4.77a1.36,1.36,0,0,1-.4-1.83,5.93,5.93,0,0,0,.48-2.74q0-39.33,0-78.68c0-3.68-1.71-5.38-5.43-5.38H103.64c-3.3,0-4.82-1.38-5.23-4.7a4.51,4.51,0,0,0-4.7-4.26q-22,0-44.07,0c-2.76,0-4.42,1.61-4.74,4.35,0,.24,0,.48-.06.7-.13.64-.21,1.42-.87,1.66s-.92-.5-1.3-.87c-1.73-1.7-3.39-3.47-5.17-5.13a1.72,1.72,0,0,1-.36-2.44c2.61-4.71,6.52-7.42,12-7.44q22.53-.09,45.05,0a12.8,12.8,0,0,1,12,7.51,2.32,2.32,0,0,0,2.47,1.47c7,0,14.08,0,21.12,0A13.38,13.38,0,0,1,143.4,31.29q0,20.19,0,40.39"/><path class="cls-3" d="M107.54,71.58a33.05,33.05,0,0,1-2.24,12.75c-.52,1.43-.67,1.46-1.73.41-1.75-1.75-3.47-3.53-5.26-5.24a2.1,2.1,0,0,1-.68-2.23c3.57-15.18-7-29.81-21.79-32.13a23.22,23.22,0,0,0-9.43.33,2.65,2.65,0,0,1-2.94-.89c-1.58-1.72-3.29-3.32-4.93-5-1-1.06-1-1.23.4-1.73,11.8-4.17,23-2.93,33.3,4.22,9,6.26,13.94,15.11,15.26,26a5.27,5.27,0,0,1,0,.56v2.94"/><path class="cls-3" d="M125.49,40.15a4.57,4.57,0,1,1-4.62-4.56,4.45,4.45,0,0,1,4.62,4.56"/></g></svg>