<svg id="Layer_1" data-name="Layer 1" xmlns="http://www.w3.org/2000/svg" viewBox="0 0 178.58 178.58"><defs><style>.cls-1{fill:#2c7732;stroke:#2c7732;stroke-miterlimit:10;stroke-width:1.99px;}</style></defs><title>prijezd hostu copy</title><path class="cls-1" d="M1.41,99.63c1.12-3.81,2.86-7.2,6.17-9.62a17.76,17.76,0,0,1,5.83-2.8c8.1-2.22,16.19-4.45,24.31-6.62a5.46,5.46,0,0,0,3.14-2.14C45.54,72.24,50.31,66.11,55,59.89a20.74,20.74,0,0,1,17.54-8.71q25.56,0,51.1,0c8.13,0,14.26,3.41,18.51,10.33,3.63,5.89,7.35,11.72,11,17.59A4.65,4.65,0,0,0,155.28,81c4.06,1.83,8.13,3.64,12.16,5.56,6.44,3.07,9.82,8.12,9.73,15.37,0,3.71,0,7.43,0,11.14a15.58,15.58,0,0,1-15.91,15.8c-2.71,0-4.1.56-5.28,3.3a19.37,19.37,0,0,1-19.22,11.75c-8.71-.69-14.81-5.23-17.94-13.49a1.92,1.92,0,0,0-2.08-1.51q-28.47,0-56.93,0a1.92,1.92,0,0,0-2.13,1.46A20.3,20.3,0,0,1,38.54,144c-8.52,0-15.87-5.34-19-13.78-.29-.78-.61-1.28-1.54-1.27-8.58,0-13.9-4.27-16.38-12.35a2.77,2.77,0,0,0-.22-.46Zm86.78,21.83c9.2,0,18.4,0,27.6,0,1.48,0,2-.44,2.35-1.92a20.1,20.1,0,0,1,39.18-.65c.66,2.64.66,2.64,3.37,2.53,5.56-.21,8.84-3.39,9-8.94.09-3.82.1-7.65-.11-11.48a8.36,8.36,0,0,0-5.25-7.59c-4.29-2-8.59-4-12.94-5.9a9,9,0,0,1-4.26-3.77c-3.83-6.23-7.76-12.4-11.61-18.62a12.61,12.61,0,0,0-11.57-6.32q-25.64.11-51.27,0a13.72,13.72,0,0,0-11.76,5.81c-5,6.57-10,13.06-15,19.65a8.15,8.15,0,0,1-4.68,3.16c-8.67,2.3-17.31,4.69-25.95,7.09a8.39,8.39,0,0,0-6.57,8.53c0,3.14-.06,6.28,0,9.43.09,4.94,2.83,8,7.6,8.83,1.65.29,2.3-.1,2.66-1.82a20.09,20.09,0,0,1,39.28,0c.35,1.58.94,2,2.47,2C69.9,121.43,79,121.46,88.19,121.46Zm62.06,2.33a12.49,12.49,0,1,0-25-.17,12.49,12.49,0,1,0,25,.17Zm-124.1,0a12.49,12.49,0,1,0,12.41-12.62A12.42,12.42,0,0,0,26.15,123.77Z"/></svg>