<svg id="Layer_1" data-name="Layer 1" xmlns="http://www.w3.org/2000/svg" viewBox="0 0 178.58 178.58"><defs><style>.cls-1{fill:#2c7732;}</style></defs><title>prijezd hostu</title><path class="cls-1" d="M16.38,119.62V104.45c.2-.55.4-1.09.58-1.65a13.24,13.24,0,0,1,25.78,3.85c0,1.94,0,3.89,0,5.83.25,6.08,5.94,9.44,10.84,6.41a6.93,6.93,0,0,0,2.8-8.29C52.66,99.76,49,88.89,45.09,78.11A45.5,45.5,0,0,1,42.86,57.3a46.3,46.3,0,0,1,14.24-29C68.73,17.09,82.71,12.61,98.69,15.11c13,2,23.49,8.64,31.43,19.16a46.26,46.26,0,0,1,9.37,24.6,42.06,42.06,0,0,1-2,17.83c-4.07,11.29-8.06,22.61-12.07,33.92a7,7,0,0,0,5,9.11,7,7,0,0,0,8.76-5.51c.47-2.61.08-5.25.27-7.86A12.69,12.69,0,0,1,147.29,95c4.78-2.13,9.39-1.46,13.59,1.72a14.46,14.46,0,0,1,4.89,7.75v15.17c-.08.43-.16.86-.25,1.29-2.63,12.64-10.09,20.89-22.46,24.65-3.68,1.12-7.47,1.11-11.26,1-1.13,0-1.5.34-1.24,1.44a10,10,0,0,1,.12,4.05c-1.1,6.35-4.73,10.36-11,11.92H115A40,40,0,0,1,97.65,152.9a38.09,38.09,0,0,1-6-8.24c-.49-.92-.88-.92-1.34,0-.13.26-.27.51-.42.76A41.51,41.51,0,0,1,66.86,164H62.19c-.83-.26-1.68-.47-2.49-.79a13.13,13.13,0,0,1-8.11-15.06c.23-1.15,0-1.63-1.24-1.56s-2.62.05-3.93,0A30.24,30.24,0,0,1,22.59,134.5,31.42,31.42,0,0,1,16.38,119.62Zm112.36,18c2.42-.07,5.28,0,8.15-.18a21.56,21.56,0,0,0,19.22-16.18c1.19-4.73.77-9.56.72-14.36a3.43,3.43,0,0,0-.21-1,4.13,4.13,0,0,0-4.91-2.84c-2.09.5-3.27,2.15-3.32,4.72a58.8,58.8,0,0,1-.13,7.28c-.95,6.53-4.6,11.12-10.88,13.2a15.4,15.4,0,0,1-16.66-4c-4.64-4.65-6.08-10.31-3.85-16.63,3.84-10.91,7.69-21.82,11.66-32.69a35.56,35.56,0,0,0,1.75-16.5A37.34,37.34,0,0,0,120.61,37C110.12,25.58,97.1,21.4,82,24.61c-11.69,2.5-20.31,9.59-25.89,20.08a37.07,37.07,0,0,0-2.33,30.74q5.64,16.18,11.26,32.36a15.8,15.8,0,0,1,1,5.43A16.29,16.29,0,0,1,51.62,129a16.12,16.12,0,0,1-17.56-12.9c-.53-2.65-.19-5.33-.28-8a6.43,6.43,0,0,0-.72-3.23A4.1,4.1,0,0,0,28.53,103a4.26,4.26,0,0,0-3.25,4.46c0,3.5-.11,7,.18,10.49A21.71,21.71,0,0,0,45,137.39c4.86.35,9.72.08,14.58.22a4.91,4.91,0,0,0,3.22-1.09c4.11-3.07,6-7.24,6.28-12.28a4.32,4.32,0,0,1,4.73-4.13,4.39,4.39,0,0,1,4.21,4.52,22.89,22.89,0,0,1-4.12,13.29,27.17,27.17,0,0,1-10.9,9c-2.5,1.24-3.31,3.59-2.2,5.82s3.47,2.82,5.91,1.69a35.14,35.14,0,0,0,9.87-6.65,32.72,32.72,0,0,0,10-23.09c.11-2.8,1.89-4.56,4.45-4.58s4.35,1.77,4.54,4.66c.09,1.4.12,2.82.34,4.21,1.89,11.85,8.36,20.28,19.16,25.42a6.05,6.05,0,0,0,1.8.55,4.19,4.19,0,0,0,4.55-3.09c.64-1.93,0-3.43-1.84-4.55-.67-.39-1.38-.72-2.07-1.08-7.42-3.92-11.9-10-13.22-18.29a20.66,20.66,0,0,1-.19-3.34,4.48,4.48,0,0,1,8.94-.32c.29,4.9,2,9.07,5.92,12.18a4.88,4.88,0,0,0,3.34,1.17C124.3,137.53,126.3,137.59,128.74,137.59Z"/><path class="cls-1" d="M91.07,41a22,22,0,1,1-22,21.92A21.88,21.88,0,0,1,91.07,41Zm.06,34.92a12.94,12.94,0,1,0-13-12.85A13,13,0,0,0,91.13,75.94Z"/><path class="cls-1" d="M91,67.5A4.48,4.48,0,1,1,95.56,63,4.42,4.42,0,0,1,91,67.5Z"/></svg>