<svg id="Layer_1" data-name="Layer 1" xmlns="http://www.w3.org/2000/svg" viewBox="0 0 178.58 178.58"><defs><style>.cls-1{fill:#2c7732;}</style></defs><title>pripitek</title><path class="cls-1" d="M68.3,170.06c-1.6-.89-2.92-2-3.18-3.95-.45-3.26,1.71-5.73,5.14-5.75,6.16-.05,12.33-.06,18.49,0,1.51,0,1.94-.48,1.93-2q-.06-20.28,0-40.56c0-1.32-.36-1.92-1.76-2.14a44.14,44.14,0,0,1-37.36-44.1c0-5,1.09-9.86,1.86-14.77q3-19.32,6.1-38.63c.19-1.22.36-2.46.65-3.66a4.76,4.76,0,0,1,4.72-3.76q30.77,0,61.54,0a4.69,4.69,0,0,1,4.77,4.06c.89,5.05,1.67,10.11,2.47,15.17,1.81,11.44,3.46,22.91,5.43,34.33a44.24,44.24,0,0,1-35.62,51.23,5,5,0,0,1-.93.14c-1.44,0-1.92.67-1.92,2.13.05,11.5,0,23,0,34.5,0,2.07.06,4.14,0,6.21-.06,1.35.4,1.81,1.77,1.8q9.33-.09,18.65,0c3.43,0,5.59,2.49,5.14,5.75-.27,1.95-1.59,3.06-3.18,3.95Zm27.52-114c-10.21,0-20.41,0-30.62,0-1.17,0-1.76.23-1.92,1.55-.41,3.44-1.1,6.84-1.5,10.28-1.33,11.47,2.07,21.42,10.5,29.25,9.4,8.75,20.61,11.22,33,7.88,14-3.76,24.4-17.44,24.54-31.86,0-5.22-1.12-10.27-1.76-15.39-.19-1.46-.81-1.72-2.11-1.71C115.91,56.09,105.87,56.07,95.82,56.07Zm-.25-9.83c9.58,0,19.16,0,28.74,0,1.33,0,1.93-.29,1.69-1.75Q124.14,33.26,122.4,22c-.16-1-.52-1.4-1.57-1.4q-25.15,0-50.33,0c-1,0-1.42.35-1.58,1.39q-1.73,11.26-3.6,22.52c-.23,1.43.32,1.77,1.67,1.76C76.52,46.22,86.05,46.24,95.57,46.24Z"/></svg>