<svg id="Layer_1" data-name="Layer 1" xmlns="http://www.w3.org/2000/svg" viewBox="0 0 178.58 178.58"><defs><style>.cls-1{fill:#2c7732;}</style></defs><title>pripitek</title><path class="cls-1" d="M62.9,164.19a4.73,4.73,0,0,1-2.82-3.49,4.31,4.31,0,0,1,4.55-5.09c5.45,0,10.9-.05,16.36,0,1.33,0,1.71-.42,1.71-1.73q-.08-17.94,0-35.88c0-1.16-.31-1.69-1.55-1.89a39,39,0,0,1-33-39c0-4.4,1-8.73,1.64-13.06q2.69-17.1,5.4-34.17c.17-1.09.31-2.18.57-3.25a4.22,4.22,0,0,1,4.18-3.32q27.21,0,54.43,0a4.14,4.14,0,0,1,4.22,3.59c.79,4.46,1.48,8.94,2.18,13.42,1.6,10.12,3.07,20.27,4.81,30.37A39.13,39.13,0,0,1,94,116a4.51,4.51,0,0,1-.82.12c-1.27,0-1.7.6-1.69,1.88,0,10.18,0,20.35,0,30.52,0,1.83.06,3.67,0,5.5,0,1.19.35,1.6,1.57,1.59,5.5-.06,11-.05,16.49,0a4.31,4.31,0,0,1,4.55,5.09,4.73,4.73,0,0,1-2.82,3.49ZM87.23,63.36c-9,0-18,0-27.08,0-1,0-1.55.2-1.69,1.37-.37,3.05-1,6.06-1.33,9.1C56,84,59,92.76,66.41,99.68c8.32,7.74,18.24,9.92,29.21,7,12.35-3.33,21.57-15.43,21.7-28.18,0-4.62-1-9.08-1.56-13.62-.16-1.29-.71-1.51-1.86-1.51C105,63.38,96.12,63.36,87.23,63.36ZM87,54.67c8.47,0,17,0,25.42,0,1.17,0,1.7-.26,1.49-1.55q-1.64-10-3.19-19.92c-.14-.91-.45-1.24-1.38-1.24Q87.1,32,64.84,32c-.91,0-1.25.31-1.39,1.23q-1.55,10-3.19,19.92c-.21,1.27.29,1.56,1.48,1.56C70.16,54.65,78.59,54.67,87,54.67Z"/></svg>