<svg id="Layer_1" data-name="Layer 1" xmlns="http://www.w3.org/2000/svg" xmlns:xlink="http://www.w3.org/1999/xlink" viewBox="0 0 154.46 156.09"><defs><style>.cls-1{fill:none;}.cls-2{clip-path:url(#clip-path);}.cls-3{fill:#2c7732;}</style><clipPath id="clip-path"><rect class="cls-1" width="154.46" height="156.09"/></clipPath></defs><title>rsvp</title><g class="cls-2"><path class="cls-3" d="M76.89,83.7c12-.12,22.41-9.11,22.6-22.52A22.21,22.21,0,0,0,77.41,38.35C65.63,38.1,55,47.15,54.74,60.73c-.23,12,8.82,22.45,22.15,23m.49,63.09c1.69-.08,3.64-.16,5.6-.27.59,0,1.19-.17,1.78-.24A66.52,66.52,0,0,0,123,128.62a2,2,0,0,0,.65-2.51c-8.37-23-31.7-36.69-55.55-32C50,97.69,37.52,108.58,30.65,126a2.06,2.06,0,0,0,.58,2.65c13,11.94,28.35,17.91,46.15,18.17m-68-72.24a61.71,61.71,0,0,0,.34,11.08,67.9,67.9,0,0,0,12.39,32.6c.75,1.06,1.07,1.06,1.64-.14A58.91,58.91,0,0,1,56.68,87.4c1.38-.54,1.39-.64.27-1.62C48.06,78,44.22,68.24,45.69,56.47c2.22-17.81,19.51-30.58,37-27.11,12.92,2.57,21.62,10.45,25,23.32s-.38,24.13-10.37,33.05c-1.19,1-1.2,1.12.28,1.69A59.15,59.15,0,0,1,130.47,118c.7,1.47.76,1.48,1.68.16,11.22-16,15.15-33.8,11.61-53-6.84-37.18-42.94-61.79-79.54-54.53-31.42,6.24-53.79,33.66-54.85,64M0,84.46V71.66c.16-1.16.33-2.31.47-3.46A73.17,73.17,0,0,1,13.09,34.33C30.4,9.71,54.06-1.78,83.93.22a71.16,71.16,0,0,1,30.84,9.53c29.35,16.82,44.86,49.6,38.13,83.07-6.17,30.69-24.81,50.72-54.26,60.36a79.39,79.39,0,0,1-15.2,2.91H70.79c-2.78-.4-5.59-.61-8.32-1.24q-45.91-10.51-59.87-56A83.07,83.07,0,0,1,0,84.46"/></g></svg>