<svg id="Layer_1" data-name="Layer 1" xmlns="http://www.w3.org/2000/svg" viewBox="0 0 178.58 178.58"><defs><style>.cls-1{fill:#2e7a3c;}</style></defs><title>rsvp</title><path class="cls-1" d="M89,94.94a22.46,22.46,0,0,0,22.61-22.52A22.23,22.23,0,0,0,89.48,49.59C77.69,49.34,67.06,58.4,66.8,72c-.22,12,8.82,22.46,22.15,23M89.44,158c1.69-.08,3.64-.16,5.6-.27.6,0,1.19-.16,1.79-.23a66.47,66.47,0,0,0,38.22-17.67,2,2,0,0,0,.65-2.51c-8.36-22.95-31.7-36.69-55.55-32C62,108.93,49.58,119.83,42.72,137.21a2,2,0,0,0,.58,2.65c13,11.95,28.34,17.92,46.14,18.17m-68-72.23a61.71,61.71,0,0,0,.34,11.08,68,68,0,0,0,12.4,32.6c.74,1.06,1.07,1.05,1.64-.15A58.93,58.93,0,0,1,68.74,98.64c1.38-.53,1.39-.64.27-1.61-8.89-7.75-12.73-17.54-11.26-29.32,2.22-17.81,19.51-30.57,37-27.1,12.92,2.56,21.62,10.44,25,23.32s-.37,24.13-10.37,33c-1.18,1.06-1.19,1.12.28,1.7a59.08,59.08,0,0,1,32.85,30.58c.71,1.46.76,1.48,1.68.16,11.22-16,15.15-33.8,11.61-53C149,39.19,112.88,14.57,76.28,21.84c-31.42,6.24-53.79,33.65-54.85,64m-9.37,9.91V82.9c.16-1.15.33-2.3.47-3.46A73.17,73.17,0,0,1,25.15,45.57C42.46,21,66.12,9.46,96,11.47A71.16,71.16,0,0,1,126.83,21c29.36,16.82,44.86,49.6,38.13,83.07-6.16,30.68-24.81,50.71-54.26,60.35a78.5,78.5,0,0,1-15.2,2.92H82.85c-2.77-.41-5.59-.62-8.32-1.24q-45.91-10.51-59.87-56a83,83,0,0,1-2.6-14.34"/></svg>