<svg id="Layer_1" data-name="Layer 1" xmlns="http://www.w3.org/2000/svg" viewBox="0 0 178.58 178.58"><defs><style>.cls-1{fill:#2c7732;}</style></defs><title>rucicka</title><path class="cls-1" d="M26.09,109.8c.39-2.41.71-4.83,1.29-7.21a54.55,54.55,0,0,1,4.66-12,150.79,150.79,0,0,0,12.87-34c.32-1.33.64-2.67.93-4a14.22,14.22,0,0,1,28,1.24,15.73,15.73,0,0,1-.48,5.85c-1.15,4.85-2.34,9.68-3.51,14.51a1.94,1.94,0,0,0-.11,1.21c.56-.06.81-.55,1.14-.88Q87.1,58.43,103.25,42.26c4.85-4.83,11.8-5.43,17.13-1.52a12.17,12.17,0,0,1,4,4.66c.43.92.8,1.15,1.82.69a13.17,13.17,0,0,1,18.32,13.39c-.12,1.08.5,1.1,1.13,1.3a13.2,13.2,0,0,1,9.28,12.85,13,13,0,0,1-3.9,9c-1.35,1.38-2.7,2.76-4.11,4.08-.74.71-.69,1.06.21,1.59a12.63,12.63,0,0,1,6.58,9.89c.53,4.53-1.18,8.2-4.34,11.33q-12.26,12.15-24.48,24.33c-5.32,5.3-10.55,10.7-16,15.91a47.92,47.92,0,0,1-29.5,13.47A49.07,49.07,0,0,1,28.45,130a67.09,67.09,0,0,1-2.36-10.65Zm8,4.71a39.85,39.85,0,0,0,.75,7.55,40.85,40.85,0,0,0,69.44,20.79q12.14-12.16,24.32-24.3,7.61-7.6,15.23-15.18a4.88,4.88,0,0,0,1.47-5.15,4.77,4.77,0,0,0-8.08-1.84c-5.51,5.41-11,10.87-16.46,16.31-1.41,1.39-2.77,2.82-4.21,4.17a4,4,0,0,1-5.94-.31,4.13,4.13,0,0,1,.51-5.78Q121.59,100.35,132,90c4.38-4.37,8.77-8.72,13.12-13.11a4.78,4.78,0,0,0,0-7c-2.07-2-4.9-1.93-7.1.26L108.2,99.77a12.55,12.55,0,0,1-1.13,1.06,4,4,0,0,1-4.12.56A3.84,3.84,0,0,1,100.48,98a4.48,4.48,0,0,1,1.63-3.74Q115.3,81.18,128.46,68c2.16-2.15,4.35-4.28,6.46-6.47a4.77,4.77,0,0,0-.18-7c-2.06-1.94-4.89-1.84-7.12.36-4.06,4-8.08,8.06-12.12,12.1Q105.21,77.3,94.92,87.58a4.05,4.05,0,0,1-6,.21,4.18,4.18,0,0,1,.22-6c.56-.59,1.15-1.15,1.72-1.73l25-25a4.9,4.9,0,0,0-4-8.53,5.34,5.34,0,0,0-3.24,1.92L66.19,90.94c-.37.36-.72.74-1.1,1.08-1.69,1.51-3.43,1.78-5.06.8a4.18,4.18,0,0,1-1.9-4.89c.58-2.46,1.18-4.92,1.78-7.38,1.86-7.71,3.75-15.42,5.6-23.13.88-3.68-1-6.86-4.36-7.71S54.71,51,53.81,54.63c-.36,1.46-.68,2.92-1,4.38A162.34,162.34,0,0,1,38.69,95.69,41.35,41.35,0,0,0,34.13,114.51Z"/><path class="cls-1" d="M158,142.15a4.47,4.47,0,0,1-.57,2.15,44.86,44.86,0,0,1-25.3,23.75c-2.56,1-4.85.09-5.74-2.22s.27-4.44,2.76-5.41a36.73,36.73,0,0,0,20.93-19.76,4.14,4.14,0,0,1,4.77-2.59A4,4,0,0,1,158,142.15Z"/><path class="cls-1" d="M141.28,130.59a4.13,4.13,0,0,1,4.18,4.84,12.46,12.46,0,0,1-1.48,3.41,34.16,34.16,0,0,1-19.4,16.53,4.08,4.08,0,0,1-4.5-6.54,4.48,4.48,0,0,1,1.93-1.22,26.27,26.27,0,0,0,15.61-14.42A4.05,4.05,0,0,1,141.28,130.59Z"/></svg>