<svg id="Layer_1" data-name="Layer 1" xmlns="http://www.w3.org/2000/svg" viewBox="0 0 178.58 178.58"><defs><style>.cls-1{fill:#2c7732;}</style></defs><title>rucicka</title><path class="cls-1" d="M16.22,97.85c.45-2.76.81-5.55,1.49-8.28a62.42,62.42,0,0,1,5.35-13.76A172.66,172.66,0,0,0,37.85,36.75c.37-1.53.74-3.07,1.08-4.61a16.34,16.34,0,0,1,32.22,1.43,18.11,18.11,0,0,1-.56,6.73c-1.32,5.57-2.68,11.12-4,16.68a2.19,2.19,0,0,0-.12,1.38c.64-.06.93-.62,1.31-1q18.59-18.57,37.17-37.15c5.57-5.55,13.57-6.24,19.69-1.74a14.07,14.07,0,0,1,4.57,5.35c.5,1.07.92,1.32,2.09.8,10.45-4.68,22.29,4,21.06,15.4-.13,1.23.58,1.25,1.31,1.49A15.19,15.19,0,0,1,164.3,56.28a15,15,0,0,1-4.48,10.34c-1.56,1.59-3.11,3.18-4.72,4.7-.86.8-.8,1.22.23,1.82a14.53,14.53,0,0,1,7.57,11.37c.6,5.21-1.36,9.43-5,13q-14.08,14-28.14,28c-6.12,6.09-12.13,12.3-18.35,18.28a55.08,55.08,0,0,1-33.91,15.49,56.44,56.44,0,0,1-58.58-38.22,76.55,76.55,0,0,1-2.71-12.25Zm9.25,5.43a47,47,0,0,0,80.68,32.57q14-14,28-27.94,8.74-8.73,17.51-17.45a5.62,5.62,0,0,0,1.69-5.92A5.49,5.49,0,0,0,144,82.42c-6.33,6.23-12.62,12.51-18.93,18.76-1.61,1.6-3.18,3.24-4.83,4.79a4.6,4.6,0,0,1-6.83-.35c-1.65-2-1.43-4.62.59-6.64q12-12,24-24c5-5,10.08-10,15.08-15.06a5.49,5.49,0,0,0,0-8.06c-2.38-2.31-5.63-2.22-8.16.29q-17.17,17.05-34.33,34.13a12.25,12.25,0,0,1-1.29,1.21,4.58,4.58,0,0,1-4.75.65,4.41,4.41,0,0,1-2.83-3.85,5.13,5.13,0,0,1,1.87-4.3q15.17-15.09,30.3-30.2c2.48-2.48,5-4.92,7.43-7.44a5.5,5.5,0,0,0-.21-8.06c-2.38-2.23-5.63-2.11-8.19.42-4.67,4.6-9.29,9.27-13.93,13.91Q107.19,60.49,95.35,72.31c-2.11,2.1-5,2.17-6.86.25a4.82,4.82,0,0,1,.24-6.89c.65-.67,1.33-1.33,2-2L119.5,34.89a5.63,5.63,0,0,0-4.57-9.8,6.23,6.23,0,0,0-3.74,2.2Q86.77,51.74,62.32,76.18c-.42.41-.83.84-1.27,1.24-1.94,1.74-3.93,2-5.81.92a4.82,4.82,0,0,1-2.19-5.62c.67-2.84,1.36-5.66,2.05-8.49,2.14-8.86,4.31-17.72,6.43-26.59,1-4.23-1.08-7.89-5-8.86s-7.41,1.43-8.45,5.65c-.41,1.68-.77,3.37-1.18,5A187.35,187.35,0,0,1,30.71,81.64,47.2,47.2,0,0,0,25.47,103.28Z"/><path class="cls-1" d="M167.91,135.05a5.33,5.33,0,0,1-.65,2.47,51.6,51.6,0,0,1-29.09,27.3c-2.94,1.14-5.58.1-6.6-2.55s.31-5.1,3.17-6.21a42.27,42.27,0,0,0,24.06-22.73,4.77,4.77,0,0,1,5.49-3A4.66,4.66,0,0,1,167.91,135.05Z"/><path class="cls-1" d="M148.64,121.75a4.75,4.75,0,0,1,4.8,5.57,13.93,13.93,0,0,1-1.69,3.92,39.28,39.28,0,0,1-22.3,19,4.69,4.69,0,0,1-5.18-7.51,5.27,5.27,0,0,1,2.22-1.41,30.15,30.15,0,0,0,17.94-16.58A4.7,4.7,0,0,1,148.64,121.75Z"/></svg>