<svg id="Layer_1" data-name="Layer 1" xmlns="http://www.w3.org/2000/svg" xmlns:xlink="http://www.w3.org/1999/xlink" viewBox="0 0 127.1 147.85"><defs><style>.cls-1{fill:none;}.cls-2{clip-path:url(#clip-path);}.cls-3{fill:#2c7732;}</style><clipPath id="clip-path"><rect class="cls-1" width="127.1" height="147.85"/></clipPath></defs><title>prespani</title><g class="cls-2"><path class="cls-3" d="M67.21,138.92a42.36,42.36,0,0,0,7-.45c17.68-2.82,31.42-11.7,41-26.91.24-.37.79-.78.42-1.25s-.81,0-1.2.12a59.78,59.78,0,0,1-17.31,2.47A61.1,61.1,0,0,1,39.8,32.15c.12-.35.48-.77.2-1.07s-.8.07-1.14.25a50.32,50.32,0,0,0-11.64,8.4c-15,14.78-20.95,32.65-17,53.35,5.09,26.69,28.9,45.9,57,45.84m-6.52,8.93a81.23,81.23,0,0,1-12.54-2.44Q15.44,135.34,3.66,103.15A61.94,61.94,0,0,1,.2,77,66.33,66.33,0,0,1,40.55,20.55a7.3,7.3,0,0,1,8.38,1.32c2.19,2.18,2.67,5.2,1.24,8.4a51.69,51.69,0,0,0-4.62,24.12,52,52,0,0,0,45.93,49.15A50.85,50.85,0,0,0,117,100c4.27-1.7,8.61.31,9.79,4.5a7.37,7.37,0,0,1-.5,5.33,66.3,66.3,0,0,1-48.13,37c-2.07.4-4.16.64-6.25.95Z"/><path class="cls-3" d="M112.35,8.87c-2.25,0-4.24,0-6.23,0-2.94,0-4.93-1.85-4.89-4.49S103.22,0,106.1,0c5.37,0,10.75,0,16.12,0a4.38,4.38,0,0,1,4.44,2.57,4.42,4.42,0,0,1-.89,5.07L117.23,17c-.35.38-.68.77-1.33,1.5,2.49,0,4.58,0,6.66,0A4.37,4.37,0,0,1,127,23.4a4.29,4.29,0,0,1-3,3.82,3.15,3.15,0,0,1-.85.18c-6,.24-12,.27-18,0a4.09,4.09,0,0,1-3.73-3,4.36,4.36,0,0,1,1.09-4.65c3-3.28,6-6.53,8.92-9.8.25-.27.45-.58.86-1.1"/><path class="cls-3" d="M84.46,26c.89,0,1.79,0,2.68,0a4.66,4.66,0,0,1,4.68,4.52,4.6,4.6,0,0,1-4.69,4.5c-4.37.06-8.74,0-13.1,0a4.44,4.44,0,0,1-4.35-2.77,4.31,4.31,0,0,1,1-4.92l6.15-6.77c-.61-.5-1.25-.28-1.82-.3-3.57-.09-5.69-1.79-5.69-4.58s2.09-4.44,5.71-4.44c4,0,8,0,12,0a4.51,4.51,0,0,1,3.41,7.79c-2,2.21-4,4.39-6,6.59l.11.39"/><path class="cls-3" d="M112.05,51.46c1.23,0,2.08,0,2.94,0,2.79.15,4.79,2.09,4.76,4.6a4.63,4.63,0,0,1-4.9,4.42c-4.27,0-8.54,0-12.81,0a4.46,4.46,0,0,1-4.38-2.71c-.9-1.93-.35-3.62,1-5.14,2-2.18,4-4.39,6.32-6.95-1.36,0-2.34.06-3.31,0a4.61,4.61,0,0,1-4.49-4.26c-.14-2.05,1.31-4.34,3.44-4.52a77.85,77.85,0,0,1,15.64,0c3.42.4,4.49,4.64,2.14,7.36-1.75,2-3.6,4-5.41,6-.25.28-.48.57-1,1.19"/></g></svg>