<svg id="Layer_1" data-name="Layer 1" xmlns="http://www.w3.org/2000/svg" viewBox="0 0 178.58 178.58"><defs><style>.cls-1{fill:#2c7732;}</style></defs><title>prespani</title><path class="cls-1" d="M93,154.29a43.49,43.49,0,0,0,7-.45c17.69-2.82,31.43-11.7,41-26.91.23-.37.78-.79.42-1.25s-.82,0-1.21.12a59.79,59.79,0,0,1-34.32-.11A61,61,0,0,1,65.54,47.51c.12-.34.49-.76.2-1.07s-.79.07-1.13.25A50.5,50.5,0,0,0,53,55.1C38,69.87,32,87.74,36,108.45c5.09,26.68,28.9,45.9,57,45.84m-6.52,8.93a83.92,83.92,0,0,1-12.54-2.44Q41.18,150.7,29.4,118.51A61.87,61.87,0,0,1,25.94,92.4,66.38,66.38,0,0,1,66.29,35.92c3.13-1.33,6.19-.87,8.38,1.31s2.67,5.2,1.24,8.4a51.73,51.73,0,0,0-4.62,24.13,52,52,0,0,0,45.94,49.15,50.92,50.92,0,0,0,25.52-3.51c4.28-1.7,8.61.31,9.79,4.5a7.41,7.41,0,0,1-.49,5.33,66.34,66.34,0,0,1-48.14,37c-2.07.39-4.16.64-6.24.95Z"/><path class="cls-1" d="M138.1,24.24c-2.25,0-4.25,0-6.24,0-2.94,0-4.93-1.85-4.89-4.49s2-4.35,4.87-4.36c5.38,0,10.75,0,16.12,0a4.38,4.38,0,0,1,4.44,2.56,4.44,4.44,0,0,1-.89,5.08L143,32.37c-.35.38-.68.77-1.32,1.5,2.49,0,4.57,0,6.65,0a4.39,4.39,0,0,1,4.48,4.88,4.32,4.32,0,0,1-3,3.83,3.08,3.08,0,0,1-.84.18c-6,.23-12,.26-18,0a4.06,4.06,0,0,1-3.72-3,4.39,4.39,0,0,1,1.08-4.66c3-3.27,5.95-6.53,8.92-9.79.25-.27.46-.58.87-1.1"/><path class="cls-1" d="M110.2,41.4c.89,0,1.79,0,2.68,0a4.66,4.66,0,0,1,4.69,4.52,4.61,4.61,0,0,1-4.7,4.49c-4.36.06-8.73,0-13.1,0a4.48,4.48,0,0,1-4.35-2.77,4.31,4.31,0,0,1,1-4.92L102.53,36c-.6-.49-1.24-.28-1.82-.29-3.56-.1-5.69-1.8-5.69-4.58s2.1-4.45,5.71-4.45c4,0,8,0,12,0a4.52,4.52,0,0,1,3.42,7.79q-3,3.31-6,6.59l.11.39"/><path class="cls-1" d="M137.79,66.82c1.23,0,2.09,0,2.94,0a4.7,4.7,0,0,1,4.77,4.6,4.65,4.65,0,0,1-4.91,4.42c-4.27,0-8.54,0-12.81,0a4.48,4.48,0,0,1-4.38-2.7c-.9-1.94-.34-3.63,1.06-5.15,2-2.18,4-4.39,6.31-7-1.36,0-2.34.07-3.31,0A4.62,4.62,0,0,1,123,56.79c-.13-2,1.31-4.35,3.45-4.53a77.12,77.12,0,0,1,15.64,0c3.41.4,4.48,4.63,2.14,7.35-1.76,2-3.61,4-5.41,6-.26.28-.49.58-1,1.19"/></svg>