<svg id="Layer_1" data-name="Layer 1" xmlns="http://www.w3.org/2000/svg" viewBox="0 0 178.58 178.58"><defs><style>.cls-1{fill:#2c7732;stroke:#2e7832;stroke-miterlimit:10;stroke-width:0.25px;}</style></defs><title>srdicko</title><path class="cls-1" d="M142.94,88.6c-.09-1-.11-2.32-.33-3.56-1.75-10-7.17-17.15-16.65-20.72s-18.2-1.9-26,4.53a92.49,92.49,0,0,0-6.76,6.67C90.73,78,88,78,85.52,75.62c-1.87-1.86-3.68-3.77-5.58-5.58-6.22-5.92-13.65-8.49-22.11-7.12-10.24,1.66-17.36,7.59-20.68,17.41S35.67,99.55,43,107.11C58,122.43,73.14,137.5,88.19,152.69c.78.8,1.29.88,2.12,0Q113,129.84,135.69,107c4.93-5,7-11.21,7.25-18.36M61.67,52.94A35.08,35.08,0,0,1,86.8,63.25c2.47,2.39,2.44,2.39,5-.06a35,35,0,0,1,28.37-10.13,35.5,35.5,0,0,1,31.42,27.61c2.91,13.25-.66,24.77-10.18,34.39q-18.51,18.69-37.1,37.29c-3.67,3.7-7.31,7.43-11,11.12-2.67,2.68-5.38,2.7-8,0Q61.17,139.27,37.06,115c-6.32-6.34-10.3-13.89-10.91-22.83C25.14,77.39,31,65.83,43.59,57.9a33.14,33.14,0,0,1,18.08-5"/></svg>