<svg id="Layer_1" data-name="Layer 1" xmlns="http://www.w3.org/2000/svg" viewBox="0 0 178.58 178.58"><defs><style>.cls-1{fill:#2c7732;stroke:#2e7832;stroke-miterlimit:10;stroke-width:0.25px;}</style></defs><title>srdicko</title><path class="cls-1" d="M142.94,84.43c-.09-1.05-.11-2.33-.33-3.57-1.75-9.94-7.17-17.15-16.65-20.72s-18.2-1.89-26,4.54a90.51,90.51,0,0,0-6.76,6.67c-2.48,2.51-5.24,2.52-7.69.09-1.87-1.85-3.68-3.76-5.58-5.58C73.72,60,66.29,57.37,57.83,58.75c-10.24,1.66-17.36,7.58-20.68,17.4S35.67,95.37,43,102.94c14.91,15.32,30.1,30.39,45.15,45.58.78.79,1.29.88,2.12,0q22.68-22.91,45.38-45.77c4.93-5,7-11.22,7.25-18.36M61.67,48.77A35.11,35.11,0,0,1,86.8,59.07c2.47,2.4,2.44,2.39,5,0a35,35,0,0,1,28.37-10.13,35.49,35.49,0,0,1,31.42,27.6c2.91,13.26-.66,24.77-10.18,34.4q-18.51,18.69-37.1,37.29c-3.67,3.69-7.31,7.42-11,11.12-2.67,2.68-5.38,2.7-8,0q-24.1-24.24-48.21-48.5C30.74,104.49,26.76,97,26.15,88c-1-14.8,4.85-26.35,17.44-34.28a33,33,0,0,1,18.08-5"/></svg>