<svg id="Layer_1" data-name="Layer 1" xmlns="http://www.w3.org/2000/svg" viewBox="0 0 178.58 178.58"><defs><style>.cls-1{fill:#2c7732;stroke:#fff;stroke-miterlimit:10;}</style></defs><title>srdicko</title><path class="cls-1" d="M158.19,66.84c-.12-1.35-.15-3-.43-4.58-2.25-12.78-9.21-22-21.38-26.61S113,33.22,103,41.48A116.82,116.82,0,0,0,94.32,50c-3.18,3.22-6.73,3.23-9.87.12-2.4-2.38-4.73-4.83-7.17-7.16-8-7.6-17.53-10.91-28.38-9.14C35.75,36,26.6,43.6,22.33,56.21,18,69,20.44,80.89,29.89,90.6c19.16,19.68,38.66,39,58,58.53,1,1,1.66,1.14,2.73.06q29.12-29.41,58.28-58.78c6.32-6.4,9-14.4,9.31-23.57M53.83,21A45.08,45.08,0,0,1,86.1,34.28c3.16,3.08,3.13,3.06,6.37-.07a44.94,44.94,0,0,1,36.44-13,45.59,45.59,0,0,1,40.35,35.45c3.73,17-.85,31.8-13.08,44.16q-23.76,24-47.64,47.89c-4.72,4.74-9.39,9.54-14.11,14.28-3.43,3.44-6.91,3.46-10.31.05q-30.95-31.14-61.9-62.28C14.11,92.6,9,82.91,8.21,71.43c-1.3-19,6.22-33.84,22.4-44A42.42,42.42,0,0,1,53.83,21"/></svg>