<svg id="Layer_1" data-name="Layer 1" xmlns="http://www.w3.org/2000/svg" viewBox="0 0 178.58 178.58"><defs><style>.cls-1{fill:#2c7732;}</style></defs><title>cas</title><path class="cls-1" d="M38.38,93.69c.23,28.25,22.16,50.86,50.6,51A50.81,50.81,0,1,0,89.27,43.1c-28.07,0-50.4,22.12-50.89,50.59m-9.48.15C28.75,60.71,56,33.51,89.27,33.5a60.41,60.41,0,1,1-.14,120.82C56,154.23,28.68,127.09,28.9,93.84"/><path class="cls-1" d="M122.68,24.28a4.86,4.86,0,0,1,2.64.83,77.4,77.4,0,0,1,20.76,17.11,5.19,5.19,0,0,1,1.38,4.92,4.29,4.29,0,0,1-3.34,3.27,4.61,4.61,0,0,1-4.86-1.48A69.11,69.11,0,0,0,120.2,33.16,4.68,4.68,0,0,1,118,27.57a4.76,4.76,0,0,1,4.7-3.29"/><path class="cls-1" d="M60.74,29.85c0,1.27-1.08,2.61-2.81,3.59A69.13,69.13,0,0,0,45.31,42.6a77.05,77.05,0,0,0-5.78,6.07,4.83,4.83,0,0,1-6.84.83,4.69,4.69,0,0,1-.54-6.84A74,74,0,0,1,53.66,24.89c3.33-1.83,7.12.46,7.08,5"/><path class="cls-1" d="M84.54,79.94c0-4.49,0-9,0-13.46,0-3.1,1.85-5.09,4.68-5.11s4.78,2,4.79,5.15c0,7.53,0,15.06,0,22.59a2.49,2.49,0,0,0,1.66,2.63q7,3.42,14,7c3.09,1.58,3.88,5,1.82,7.51a4.73,4.73,0,0,1-5.92,1.13c-3-1.41-5.88-2.91-8.81-4.38s-6-3-8.94-4.45a5.27,5.27,0,0,1-3.27-5.29c.09-4.44,0-8.88,0-13.32"/></svg>