<svg id="Layer_1" data-name="Layer 1" xmlns="http://www.w3.org/2000/svg" xmlns:xlink="http://www.w3.org/1999/xlink" viewBox="0 0 120.78 130.06"><defs><style>.cls-1{fill:none;}.cls-2{clip-path:url(#clip-path);}.cls-3{fill:#2c7732;}</style><clipPath id="clip-path"><rect class="cls-1" width="120.78" height="130.06"/></clipPath></defs><title>cas</title><g class="cls-2"><path class="cls-3" d="M9.48,69.43c.23,28.25,22.16,50.86,50.6,51a50.45,50.45,0,0,0,51.11-50.6,50.46,50.46,0,0,0-50.82-51C32.3,18.82,10,41,9.48,69.43M0,69.58C-.15,36.45,27.09,9.25,60.37,9.24a60.41,60.41,0,1,1-.14,120.82C27.05,130-.22,102.83,0,69.58"/><path class="cls-3" d="M93.78,0a4.86,4.86,0,0,1,2.64.83A77.21,77.21,0,0,1,117.18,18a5.21,5.21,0,0,1,1.38,4.92,4.3,4.3,0,0,1-3.35,3.27,4.6,4.6,0,0,1-4.85-1.48A69.11,69.11,0,0,0,91.3,8.9a4.68,4.68,0,0,1-2.22-5.59A4.76,4.76,0,0,1,93.78,0"/><path class="cls-3" d="M31.84,5.59c0,1.26-1.09,2.61-2.81,3.59a68.78,68.78,0,0,0-12.62,9.16,77.05,77.05,0,0,0-5.78,6.07,4.83,4.83,0,0,1-6.84.83,4.7,4.7,0,0,1-.55-6.84A74.18,74.18,0,0,1,24.76.63c3.33-1.83,7.11.46,7.08,5"/><path class="cls-3" d="M55.63,55.68c0-4.49,0-9,0-13.47,0-3.09,1.85-5.08,4.67-5.11s4.79,2,4.79,5.16c0,7.53.05,15.06,0,22.59a2.51,2.51,0,0,0,1.67,2.63q7,3.42,14,7c3.1,1.59,3.88,5,1.82,7.52a4.73,4.73,0,0,1-5.91,1.13c-3-1.41-5.88-2.91-8.82-4.38s-5.94-3-8.93-4.45A5.27,5.27,0,0,1,55.61,69c.09-4.44,0-8.88,0-13.32"/></g></svg>