<svg id="Layer_1" data-name="Layer 1" xmlns="http://www.w3.org/2000/svg" viewBox="0 0 109.63 118.76"><defs><style>.cls-1{fill:#f9cbcc;}.cls-2{fill:#fff;}.cls-3{fill:#010101;}</style></defs><title>tom</title><rect class="cls-1" x="73.09" y="82.22" width="9.14" height="9.14"/><polygon class="cls-2" points="45.68 54.81 36.54 54.81 36.54 63.95 36.54 73.08 45.68 73.08 54.81 73.08 54.81 63.95 45.68 63.95 45.68 54.81"/><polygon class="cls-2" points="91.36 63.95 91.36 54.81 82.22 54.81 82.22 63.95 82.22 73.08 91.36 73.08 100.49 73.08 100.49 63.95 91.36 63.95"/><path class="cls-3" d="M100.49,40.27V0H91.36V9.14H82.22v9.13H27.41V9.14H18.27V0H9.14V40.27H0V86H9.14v14.54h9.13v9.14H36.54v9.13H73.09v-9.13H91.36v-9.14h9.13V86h9.14V40.27ZM82.22,91.36H73.09V82.22h9.13ZM45.68,54.81V64h9.13v9.14H36.54V54.81Zm54.81,18.28H82.22V54.81h9.14V64h9.13v9.14Z"/></svg>