<svg id="Layer_1" data-name="Layer 1" xmlns="http://www.w3.org/2000/svg" viewBox="0 0 178.58 178.58"><defs><style>.cls-1{fill:#f9cbcc;}.cls-2{fill:#fff;}.cls-3{fill:#010202;}</style></defs><title>tom</title><rect class="cls-1" x="107.57" y="112.11" width="9.14" height="9.14"/><polygon class="cls-2" points="80.16 84.7 71.02 84.7 71.02 93.84 71.02 102.97 80.16 102.97 89.29 102.97 89.29 93.84 80.16 93.84 80.16 84.7"/><polygon class="cls-2" points="125.84 93.84 125.84 84.7 116.7 84.7 116.7 93.84 116.7 102.97 125.84 102.97 134.97 102.97 134.97 93.84 125.84 93.84"/><path class="cls-3" d="M135,70.16V29.89h-9.13V39H116.7v9.13H61.89V39H52.75V29.89H43.62V70.16H34.48v45.73h9.14v14.54h9.13v9.14H71v9.13h36.55v-9.13h18.27v-9.14H135V115.89h9.14V70.16ZM116.7,121.25h-9.13v-9.14h9.13ZM80.16,84.7v9.19h9.13V103H71V84.7ZM135,103H116.7V84.7h9.14v9.19H135V103Z"/></svg>