<svg id="Layer_1" data-name="Layer 1" xmlns="http://www.w3.org/2000/svg" xmlns:xlink="http://www.w3.org/1999/xlink" viewBox="0 0 149.71 149.71"><defs><style>.cls-1{fill:none;}.cls-2{clip-path:url(#clip-path);}.cls-3{fill:#2c7732;}</style><clipPath id="clip-path"><rect class="cls-1" width="149.71" height="149.71"/></clipPath></defs><title>doprava</title><g class="cls-2"><path class="cls-3" d="M52.28,149.71a28.77,28.77,0,0,1-14-6.1c-9.15-7.79-12.69-17.69-9.64-29.31S39.51,96,51.14,93.56c3.45-.7,7-.51,10.48-.51s7.21,0,10.81,0c4.54-.1,7.71-3.14,8.28-7.84.46-3.82-2.39-7.76-6.38-8.84a10.61,10.61,0,0,0-2.75-.21c-4.87,0-9.74,0-14.61,0-1.46,0-2-.44-1.9-1.93.12-2,0-4,0-6,0-.71.15-1.27,1-1.25,6.22.1,12.48-.52,18.66.27a17.57,17.57,0,0,1,15,16.23,17.51,17.51,0,0,1-17.58,18.71c-5.31,0-10.61,0-15.92,0-10.84,0-19.48,8.21-19.61,19a19.08,19.08,0,0,0,17.37,19.4c3.65.3,7.29.18,10.94.18,12.66,0,25.31,0,38,0,2,0,2,0,2,2,0,2.29-.06,4.57-.1,6.86Z"/><path class="cls-3" d="M31.9,9c-1,.1-2.23.13-3.42.36C19.39,11.09,13,16.25,10.16,25S9.19,41.8,15.6,48.5C20.65,53.76,25.92,58.83,31,64c.88.88,1.39.8,2.22,0,5-5.09,10.12-10.11,15.15-15.2A22.82,22.82,0,0,0,55.18,30C54.28,19.56,45.63,9.3,31.9,9M0,28.18A37,37,0,0,1,4.55,15.49,32.25,32.25,0,0,1,64.06,27.77,31.46,31.46,0,0,1,55,55c-7.2,7.39-14.58,14.61-21.85,21.92-.71.71-1.2.93-2,.1C23.68,69.46,16.11,62,8.65,54.35A30.92,30.92,0,0,1,.21,37.21,8.11,8.11,0,0,0,0,36.36Z"/><path class="cls-3" d="M126.14,102.19a14.38,14.38,0,0,0-13,8.37c-2.42,5.46-1.83,10.69,2,15.3,3.14,3.77,6.89,7,10.29,10.53.69.73,1.1.42,1.65-.13,3.2-3.27,6.5-6.44,9.61-9.79,4.22-4.56,5-9.88,2.7-15.57a14.35,14.35,0,0,0-13.23-8.71m-.26,47.52c-5.46-5.48-10.94-10.94-16.37-16.45A23.21,23.21,0,0,1,107.83,102c6.31-7.74,14.68-10.55,24.3-8s15.36,9,17.15,18.66c1.47,8-.89,14.93-6.55,20.71-5.39,5.49-10.84,10.91-16.27,16.36Z"/><path class="cls-3" d="M37.84,32.48A5.71,5.71,0,1,0,31.92,38a5.86,5.86,0,0,0,5.92-5.49m9-.16A14.7,14.7,0,1,1,32.15,17.57,14.56,14.56,0,0,1,46.83,32.32"/></g></svg>