<svg id="Layer_1" data-name="Layer 1" xmlns="http://www.w3.org/2000/svg" viewBox="0 0 178.58 178.58"><defs><style>.cls-1{fill:#2c7732;}</style></defs><title>doprava</title><path class="cls-1" d="M46.34,23.44c-1,.1-2.23.13-3.42.36-9.09,1.73-15.45,6.89-18.32,15.68s-1,16.76,5.44,23.46c5.05,5.26,10.32,10.32,15.44,15.52.88.89,1.39.81,2.22,0,5-5.09,10.12-10.12,15.15-15.2a22.85,22.85,0,0,0,6.77-18.84C68.72,34,60.07,23.74,46.34,23.44ZM14.44,42.62A37.2,37.2,0,0,1,19,29.93,32.25,32.25,0,0,1,78.5,42.21a31.47,31.47,0,0,1-9,27.25c-7.2,7.39-14.58,14.61-21.85,21.92-.71.71-1.2.93-2,.1C38.12,83.9,30.55,76.4,23.09,68.79a30.92,30.92,0,0,1-8.44-17.15c-.05-.28-.14-.56-.21-.84Z"/><path class="cls-1" d="M140.58,116.63a14.39,14.39,0,0,0-13,8.36c-2.42,5.47-1.83,10.7,2,15.3,3.14,3.78,6.89,7,10.29,10.54.69.73,1.1.42,1.65-.14,3.2-3.26,6.5-6.43,9.6-9.78,4.23-4.56,5-9.88,2.71-15.57a14.35,14.35,0,0,0-13.23-8.71Zm-.26,47.51c-5.46-5.48-10.94-10.94-16.37-16.44a23.21,23.21,0,0,1-1.68-31.25c6.31-7.74,14.68-10.55,24.3-8s15.36,9,17.15,18.66c1.46,8-.89,14.93-6.56,20.71-5.38,5.49-10.83,10.91-16.26,16.35Z"/><path class="cls-1" d="M57.51,52c-2.51,2.53-5,5.05-7.55,7.59-.76.76-.89.89-1.67,1.62a2,2,0,0,1-2.92,0c-3.29-3.27-5.84-5.88-9.1-9.17a7.39,7.39,0,0,1,1.32-11.63,6.78,6.78,0,0,1,3.69-1,7.14,7.14,0,0,1,5.12,2.11c.49.49.49.49,1,0A7.31,7.31,0,1,1,57.51,52Z"/><path class="cls-1" d="M122.5,159.71a4.43,4.43,0,0,1-1,2.82h0c-.2.2-.41.39-.6.59h0a4.42,4.42,0,0,1-1.59.84,4.49,4.49,0,0,1-1.22.17H66.72a28.77,28.77,0,0,1-14-6.1c-9.16-7.79-12.69-17.69-9.64-29.31S53.94,110.39,65.58,108c3.44-.7,7-.51,10.48-.51s7.2.05,10.8,0c4.55-.09,7.72-3.14,8.29-7.84.46-3.82-2.39-7.76-6.38-8.84A10.65,10.65,0,0,0,86,90.57c-3.73,0-11.46,0-15.19,0H70.1a4.5,4.5,0,0,1-2.59-1,1.07,1.07,0,0,1-.16-.14c-.13-.13-.27-.26-.39-.39a.93.93,0,0,1-.13-.15,4.61,4.61,0,0,1,0-5.82l.1-.11q.18-.16.36-.36a4.54,4.54,0,0,1,2.62-1.17h.85c4.82-.09,13.65-.32,18.43.29a17.58,17.58,0,0,1,15,16.23,17.52,17.52,0,0,1-17.58,18.71H70.73c-10.84,0-19.48,8.21-19.61,19.05a19.07,19.07,0,0,0,17.37,19.39c3.65.31,7.29.18,10.94.19,12.65,0,25.31,0,38,0h1l.33,0a4.39,4.39,0,0,1,1.9.75,2.31,2.31,0,0,1,.39.31l.51.5a3.79,3.79,0,0,1,.25.35A4.41,4.41,0,0,1,122.5,159.71Z"/></svg>