<svg id="Layer_1" data-name="Layer 1" xmlns="http://www.w3.org/2000/svg" viewBox="0 0 178.58 178.58"><defs><style>.cls-1{fill:#ffffff;}</style></defs><title>stromecek</title><rect class="cls-1" x="82.5" y="27.42" width="13.58" height="133.61"/><polygon class="cls-1" points="89.29 17.56 28.02 59.13 35.77 70 97.04 28.44 89.29 17.56"/><polygon class="cls-1" points="89.29 17.56 28.02 59.13 35.77 70 97.04 28.44 89.29 17.56"/><polygon class="cls-1" points="89.29 17.56 28.02 59.13 35.77 70 97.04 28.44 89.29 17.56"/><polygon class="cls-1" points="89.29 17.56 28.02 59.13 35.77 70 97.04 28.44 89.29 17.56"/><polygon class="cls-1" points="89.29 17.56 81.53 28.44 142.82 70 150.56 59.13 89.29 17.56"/><polygon class="cls-1" points="28.02 109.99 35.76 120.86 97.03 79.3 89.29 68.41 28.02 109.99"/><polygon class="cls-1" points="28.02 109.99 35.76 120.86 97.03 79.3 89.29 68.41 28.02 109.99"/><polygon class="cls-1" points="28.02 109.99 35.76 120.86 97.03 79.3 89.29 68.41 28.02 109.99"/><polygon class="cls-1" points="28.02 109.99 35.76 120.86 97.03 79.3 89.29 68.41 28.02 109.99"/><polygon class="cls-1" points="81.53 79.29 142.82 120.86 150.56 109.99 89.29 68.41 81.53 79.29"/></svg>