<svg id="Layer_1" data-name="Layer 1" xmlns="http://www.w3.org/2000/svg" viewBox="0 0 178.58 178.58"><defs><style>.cls-1{fill:#3e3d3c;}.cls-2{fill:#1e1e1c;}.cls-3{fill:#f9cbcc;}.cls-4{fill:#fff;}.cls-5{fill:#717170;}</style></defs><title>via</title><rect class="cls-1" x="70.98" y="48.09" width="9.16" height="9.16"/><rect class="cls-1" x="80.14" y="57.24" width="9.16" height="9.16"/><rect class="cls-2" x="80.14" y="84.72" width="9.16" height="9.16"/><rect class="cls-1" x="98.45" y="48.09" width="9.16" height="9.16"/><rect class="cls-1" x="107.61" y="57.24" width="9.16" height="9.16"/><rect class="cls-3" x="107.61" y="112.19" width="9.16" height="9.16"/><rect class="cls-2" x="125.93" y="84.72" width="9.16" height="9.16"/><polygon class="cls-4" points="80.14 84.72 70.98 84.72 70.98 93.87 70.98 103.03 80.14 103.03 89.3 103.03 89.3 93.87 80.14 93.87 80.14 84.72"/><polygon class="cls-4" points="125.93 93.87 125.93 84.72 116.77 84.72 116.77 93.87 116.77 103.03 125.93 103.03 135.08 103.03 135.08 93.87 125.93 93.87"/><path class="cls-5" d="M135.08,70.14V29.77h-9.15v9.16h-9.16v9.16h-9.16v9.15h9.16V66.4h-9.16V57.24H98.45V48.09H80.14v9.15h9.21V66.4H80.14V57.24H71V48.09H61.82V38.93H52.67V29.77H43.51V70.14H34.35V79.3h9.16v9.16H34.35v9.15h9.16v9.16H34.35v9.16h9.16V130.5h9.16v9.16H71v9.16h36.63v-9.16h18.32V130.5h9.15V115.93h9.16V70.14Zm-18.31,51.21h-9.16v-9.16h9.16ZM89.35,93.87V103H71V84.77H89.35Zm45.78,3.74V103H116.77V84.77h18.31V97.61Z"/><polygon class="cls-1" points="34.35 97.61 34.35 106.77 43.51 106.77 52.67 106.77 52.67 97.61 43.51 97.61 34.35 97.61"/><polygon class="cls-1" points="43.51 79.3 34.35 79.3 34.35 88.46 43.51 88.46 52.67 88.46 52.67 79.3 43.51 79.3"/></svg>