<svg id="Layer_1" data-name="Layer 1" xmlns="http://www.w3.org/2000/svg" viewBox="0 0 109.89 119.05"><defs><style>.cls-1{fill:#3d3d3b;}.cls-2{fill:#1d1d1b;}.cls-3{fill:#f9cbcc;}.cls-4{fill:#fff;}.cls-5{fill:#70706f;}</style></defs><title>via</title><rect class="cls-1" x="36.63" y="18.32" width="9.16" height="9.16"/><rect class="cls-1" x="45.79" y="27.47" width="9.16" height="9.16"/><rect class="cls-2" x="45.79" y="54.95" width="9.16" height="9.16"/><rect class="cls-1" x="64.1" y="18.32" width="9.16" height="9.16"/><rect class="cls-1" x="73.26" y="27.47" width="9.16" height="9.16"/><rect class="cls-3" x="73.26" y="82.42" width="9.16" height="9.16"/><rect class="cls-2" x="91.58" y="54.95" width="9.16" height="9.16"/><polygon class="cls-4" points="45.79 54.95 36.63 54.95 36.63 64.1 36.63 73.26 45.79 73.26 54.95 73.26 54.95 64.1 45.79 64.1 45.79 54.95"/><polygon class="cls-4" points="91.58 64.1 91.58 54.95 82.42 54.95 82.42 64.1 82.42 73.26 91.58 73.26 100.73 73.26 100.73 64.1 91.58 64.1"/><path class="cls-5" d="M100.73,40.37V0H91.58V9.16H82.42v9.16H73.26v9.15h9.16v9.16H73.26V27.47H64.1V18.32H45.79v9.15H55v9.16H45.79V27.47H36.63V18.32H27.47V9.16H18.32V0H9.16V40.37H0v9.16H9.16v9.16H0v9.15H9.16V77H0v9.16H9.16v14.57h9.16v9.16H36.63v9.16H73.26v-9.16H91.58v-9.16h9.15V86.16h9.16V40.37ZM82.42,91.58H73.26V82.42h9.16ZM55,64.1v9.16H36.63V55H55Zm45.78,3.74v5.42H82.42V55h18.31V67.84Z"/><polygon class="cls-1" points="0 67.84 0 77 9.16 77 18.32 77 18.32 67.84 9.16 67.84 0 67.84"/><polygon class="cls-1" points="9.16 49.53 0 49.53 0 58.69 9.16 58.69 18.32 58.69 18.32 49.53 9.16 49.53"/></svg>