<svg id="Layer_1" data-name="Layer 1" xmlns="http://www.w3.org/2000/svg" viewBox="0 0 178.58 178.58"><defs><style>.cls-1{fill:#2e7a3c;}</style></defs><title>pocasi</title><path class="cls-1" d="M15,54.82c1.9-3.38,4.13-4,7.35-2.14,2.18,1.29,4.36,2.6,6.5,4a4.94,4.94,0,0,1,2,6.63,4.43,4.43,0,0,1-6.42,1.59c-2.36-1.36-4.67-2.84-7-4.23A6.56,6.56,0,0,1,15,57.87Z"/><path class="cls-1" d="M15,114.6a7,7,0,0,1,3-3.16c2.15-1.24,4.25-2.6,6.4-3.84a4.43,4.43,0,0,1,6.42,1.58,4.92,4.92,0,0,1-2,6.63c-2.15,1.36-4.32,2.67-6.5,4C19.15,121.68,17,121,15,117.65Z"/><path class="cls-1" d="M68.7,58.9a25.73,25.73,0,0,0-19.6,9.36c-10.54,12.26-7.7,32.57,5.75,41.1a1.51,1.51,0,0,0,2,0,22.36,22.36,0,0,1,9.59-4.06c.9-.15,1.27-.57,1.33-1.6.71-14,9.22-25.93,21.76-30.58,1.34-.5,1.39-.94.64-2.07C84.87,63.18,77.62,59.23,68.7,58.9m32.68,88.54c9.37-.06,20.72-.12,32.07-.14,11.85,0,23.19-11.81,20.81-26.49-2-12.43-13.11-20.6-24.92-18.54-3.42.6-5.23-.48-6.22-4-3-10.59-13.2-18.79-25.2-17.52-9.2,1-17.51,8.06-20.2,17.44a33.67,33.67,0,0,0-.87,10.72c.14,3.76-1.59,5.57-5.13,5.49a16.2,16.2,0,0,0-3.61.23c-6.43,1.31-10.88,5.19-12.56,11.8a16.55,16.55,0,0,0,5.24,17.29c3.14,2.82,6.92,3.7,10.93,3.7,9.23,0,18.46,0,29.66,0m.46,9.36c-10.53,0-21.06,0-31.59,0C57,156.73,46,145.18,45.93,131.22A26.56,26.56,0,0,1,49,118.38c.5-.94.49-1.39-.4-2.06a36.13,36.13,0,0,1-14.7-25.57c-2.41-20.39,11.35-38.36,30-40.91,15.14-2.08,28.9,5.63,36,20,.4.82.78,1.33,1.8,1.39,12.69.74,22,7.12,28,18.86,1,1.89,1.92,2.52,3.94,2.51,14.75-.07,27.72,11.94,29.71,27.35,2.26,17.47-8.34,33.05-24.79,36.4a22.8,22.8,0,0,1-4.6.48q-16,0-32,0"/><path class="cls-1" d="M73.08,31.13c0,1.47,0,2.94,0,4.4a4.64,4.64,0,0,1-4.28,4.83,4.44,4.44,0,0,1-4.64-4.23,52.26,52.26,0,0,1,0-10.16,4.37,4.37,0,0,1,4.79-4.19c2.35.13,4.06,2.1,4.13,4.78,0,1.52,0,3,0,4.57"/><path class="cls-1" d="M117.58,51.67a4.41,4.41,0,0,1,4.45,3.2,4.65,4.65,0,0,1-1.62,5.25c-2.74,1.8-5.52,3.53-8.38,5.1a4.32,4.32,0,0,1-5.76-2A4.83,4.83,0,0,1,107.79,57c2.58-1.66,5.24-3.21,7.88-4.8a3.23,3.23,0,0,1,1.91-.49"/></svg>