<svg id="Layer_1" data-name="Layer 1" xmlns="http://www.w3.org/2000/svg" xmlns:xlink="http://www.w3.org/1999/xlink" viewBox="0 0 148.52 135.05"><defs><style>.cls-1{fill:none;}.cls-2{clip-path:url(#clip-path);}.cls-3{fill:#2c7732;}</style><clipPath id="clip-path"><rect class="cls-1" width="148.52" height="135.05"/></clipPath></defs><title>pocasi</title><g class="cls-2"><path class="cls-3" d="M0,33.05c1.9-3.38,4.13-4,7.35-2.14,2.18,1.3,4.36,2.6,6.5,4a4.94,4.94,0,0,1,2,6.63,4.44,4.44,0,0,1-6.43,1.6c-2.36-1.37-4.66-2.84-7-4.24A6.56,6.56,0,0,1,0,36.1Z"/><path class="cls-3" d="M0,92.84a7.05,7.05,0,0,1,3-3.17c2.15-1.24,4.25-2.59,6.4-3.84a4.43,4.43,0,0,1,6.42,1.58,4.92,4.92,0,0,1-2,6.63c-2.14,1.36-4.31,2.67-6.49,4C4.12,99.91,1.93,99.27,0,95.89Z"/><path class="cls-3" d="M53.67,37.13a25.73,25.73,0,0,0-19.6,9.36c-10.54,12.26-7.7,32.57,5.75,41.1a1.5,1.5,0,0,0,2,0,22.31,22.31,0,0,1,9.59-4.06c.9-.14,1.27-.57,1.32-1.6C53.41,68,61.92,56,74.45,51.37c1.35-.5,1.4-.94.64-2.07-5.26-7.89-12.5-11.84-21.42-12.17m32.68,88.54c9.37-.06,20.72-.12,32.07-.14,11.84,0,23.19-11.81,20.8-26.49-2-12.43-13.11-20.6-24.91-18.54-3.43.6-5.24-.48-6.23-4C105.1,65.92,94.89,57.73,82.89,59c-9.2,1-17.51,8.06-20.2,17.45a33.65,33.65,0,0,0-.88,10.72c.15,3.76-1.58,5.57-5.13,5.48a16.11,16.11,0,0,0-3.6.23c-6.43,1.31-10.88,5.19-12.56,11.8A16.55,16.55,0,0,0,45.76,122c3.14,2.82,6.92,3.7,10.93,3.71,9.23,0,18.45,0,29.66,0m.46,9.36c-10.53,0-21.06,0-31.59,0C41.93,135,31,123.41,30.9,109.45A26.44,26.44,0,0,1,34,96.61c.5-.94.49-1.39-.4-2.06A36.1,36.1,0,0,1,18.88,69c-2.42-20.39,11.35-38.36,30-40.91,15.13-2.08,28.9,5.63,36,20,.4.82.78,1.33,1.8,1.39,12.68.74,22,7.12,28,18.86,1,1.9,1.91,2.52,3.93,2.51,14.75-.07,27.72,12,29.72,27.35,2.25,17.47-8.34,33.05-24.79,36.4a23,23,0,0,1-4.6.48q-16,0-32,0"/><path class="cls-3" d="M58.05,9.36c0,1.47,0,2.94,0,4.41a4.63,4.63,0,0,1-4.28,4.82,4.44,4.44,0,0,1-4.64-4.23,53.06,53.06,0,0,1,0-10.16A4.38,4.38,0,0,1,53.91,0C56.26.15,58,2.11,58,4.8c0,1.52,0,3,0,4.56"/><path class="cls-3" d="M102.55,29.9A4.4,4.4,0,0,1,107,33.1a4.64,4.64,0,0,1-1.61,5.25c-2.74,1.8-5.52,3.54-8.38,5.1a4.31,4.31,0,0,1-5.76-2,4.83,4.83,0,0,1,1.51-6.29c2.59-1.66,5.25-3.21,7.88-4.8a3.26,3.26,0,0,1,1.92-.49"/></g></svg>