<svg id="Layer_1" data-name="Layer 1" xmlns="http://www.w3.org/2000/svg" viewBox="0 0 178.58 178.58"><defs><style>.cls-1{fill:#2c7732;}</style></defs><title>zazemi2</title><path class="cls-1" d="M156.71,80a14,14,0,0,1-1.18,1.8c-1.85,2.07-4.7,2.18-7,.28C144.24,78.53,140,75,135.7,71.4Q116,55,96.26,38.49a1.32,1.32,0,0,0-2,0q-25,20.89-50.06,41.72a2.25,2.25,0,0,0-.73,2v54c0,.8,0,1.6,0,2.4s.32,1.11,1.13,1.1c2.44,0,4.88,0,7.32,0H92.69a4.8,4.8,0,0,1,5,5.54c-.23,2.1-1.62,3.31-3.42,4.15q-29.78,0-59.56,0c-.82,0-1-.16-1-1q0-35.65,0-71.33a6.88,6.88,0,0,1,1.95-2.68Q61.34,53.09,87,31.71c2.21-1.83,4.22-3.93,6.81-5.27h2.89a13.23,13.23,0,0,1,3,2Q105,33,110.5,37.54q22,18.38,44.08,36.73a7.16,7.16,0,0,1,2.13,2.84Z"/><path class="cls-1" d="M122.12,149.41c-8-4-15.53-8.62-21.81-15.09-4.75-4.9-8.3-10.47-9.57-17.27a22.13,22.13,0,0,1,2.19-15.14c4.56-8.24,13-11.77,22.13-9.39a21.17,21.17,0,0,1,7.52,3.63,1.41,1.41,0,0,0,2,0c5.24-3.73,11.05-5.35,17.37-3.79,8,2,12.46,7.51,14.36,15.33.15.62.27,1.24.41,1.87v6c-.27,1.21-.49,2.43-.81,3.62-2.06,7.56-6.73,13.35-12.48,18.39A84.74,84.74,0,0,1,125,149.41Zm-12.73-47.75c-.33,0-.85.06-1.36.16-5.47,1-8.26,6.4-7.85,11.59a20.36,20.36,0,0,0,4.66,11c4.88,6.24,11.3,10.55,18.15,14.32a1.3,1.3,0,0,0,1.44-.16c1.76-1,3.55-2,5.27-3.12,5.25-3.38,10.07-7.26,13.62-12.49,2.58-3.8,4.16-7.9,3.49-12.63-.59-4.12-3.41-7.64-7.22-8.38-4.81-.94-8.72.9-11.79,4.56-2.63,3.13-5.89,3.17-8.45,0A12.77,12.77,0,0,0,109.39,101.66Z"/></svg>