<svg id="Layer_1" data-name="Layer 1" xmlns="http://www.w3.org/2000/svg" viewBox="0 0 178.58 178.58"><defs><style>.cls-1{fill:#2c7732;stroke:#2c7732;stroke-miterlimit:10;}</style></defs><title>zvirata</title><path class="cls-1" d="M120.67,148.43a68.34,68.34,0,0,1-12.51-1.29C103.05,146.31,98,145,92.78,145a46.59,46.59,0,0,0-8.25.8c-5.34.89-10.64,2-16,2.55a32.71,32.71,0,0,1-11.33-.47,13.56,13.56,0,0,1-10.39-12.64c-.45-7.4,1.23-14.37,4.07-21.13A58.21,58.21,0,0,1,63.13,95.65C69.69,89,77.32,84.11,86.72,82.46a35.28,35.28,0,0,1,24.51,4.64c11.57,6.77,19.27,16.82,24.14,29.17a45.32,45.32,0,0,1,3.3,16.33c.06,5.36-1.4,10.1-6.15,13.24a17,17,0,0,1-8.37,2.58C123,148.5,121.83,148.43,120.67,148.43Zm-.69-7.71a18.93,18.93,0,0,0,6.66-.63,5.2,5.2,0,0,0,3.74-3.67,18.13,18.13,0,0,0,.24-7.58,45.76,45.76,0,0,0-6.55-18.16c-4.82-8-11-14.5-19.67-18.35-9.08-4-18-3.38-26.49,1.52-9.07,5.21-15.28,13-19.55,22.48a38.43,38.43,0,0,0-3.84,17.11c.15,5.16,2.25,7.14,7.43,7.25h.67c5.69.25,11.23-.85,16.74-2a59.8,59.8,0,0,1,24.6-.27C109.46,139.61,115,140.75,120,140.72Z"/><path class="cls-1" d="M90,55.48c0,6.77-1.64,13-5.9,18.39-4.38,5.56-11.07,7.59-17.35,5A17,17,0,0,1,58,70.56c-5.27-10.33-5.27-20.75.41-30.9,2.73-4.88,6.84-8.25,12.73-8.75a13.8,13.8,0,0,1,10.78,3.87c5.46,5,7.61,11.41,8.11,18.55C90,54.05,90,54.76,90,55.48ZM62,56.53a21.19,21.19,0,0,0,2.91,10.56c1.57,2.69,3.62,5,7,5.12s5.61-2.22,7.26-5C82.05,62.52,82.69,57.34,82,52a19.82,19.82,0,0,0-3.65-9.68A8.88,8.88,0,0,0,74.26,39c-2.87-1-5.91.07-8.05,2.83C63.13,45.81,62,50.43,62,56.53Z"/><path class="cls-1" d="M95.33,55.91c0-7,1.51-13.22,5.68-18.51,2.74-3.48,6.16-6,10.73-6.45,5.08-.54,9.2,1.43,12.55,5.07,4.65,5,6.52,11.19,6.81,17.91.31,7.19-1.17,13.91-5.72,19.63-3.84,4.85-8.79,7.48-15.16,6.1a15.72,15.72,0,0,1-9-5.91A28.21,28.21,0,0,1,95.33,55.91Zm28,.42a28,28,0,0,0-.65-6.9,17.88,17.88,0,0,0-4.44-8.59c-2.48-2.48-6.2-2.93-8.69-1.07a12.09,12.09,0,0,0-3.75,4.31,24.63,24.63,0,0,0-.75,21.14,13.8,13.8,0,0,0,3.66,5.23,6.4,6.4,0,0,0,8.58.29,12.22,12.22,0,0,0,3.34-4A22.87,22.87,0,0,0,123.35,56.33Z"/><path class="cls-1" d="M24.22,83.06a16.92,16.92,0,0,1,2.93-10.28c3.87-5.61,10.42-6.72,16-4,4.71,2.25,7.73,6.14,9.62,10.89A22.58,22.58,0,0,1,54,93.55c-1.49,6.19-6,10.23-12,10.7a12.74,12.74,0,0,1-8.65-2.69C27.06,97,24.46,90.6,24.22,83.06Zm7.8,0a15.87,15.87,0,0,0,3.36,10,9.5,9.5,0,0,0,3,2.61c3,1.68,5.91.76,7.36-2.33a12.17,12.17,0,0,0,.72-7.87c-.85-4-2.72-7.49-6.41-9.62A4.82,4.82,0,0,0,33,78.14,10.78,10.78,0,0,0,32,83.1Z"/><path class="cls-1" d="M161.13,82.62c0,6.64-2,12.2-6.4,16.67-3.9,4-8.6,6.09-14.33,4.45-4.31-1.24-6.89-4.33-8.44-8.35-3.34-8.71.58-20.62,8.4-25.67s16.9-1.8,19.81,7a18.44,18.44,0,0,1,.76,3.12C161.09,80.84,161.08,81.92,161.13,82.62Zm-7.77.64a11,11,0,0,0-1.23-5.58,4.72,4.72,0,0,0-6.1-2.17,8.7,8.7,0,0,0-3.7,2.79c-3.49,4.32-4.86,9.18-3,14.52,1.39,3.89,5,4.83,8.33,2.34C151.66,92.2,153.14,88,153.36,83.26Z"/></svg>