<?xml version="1.0" standalone="no"?>
<!DOCTYPE svg PUBLIC "-//W3C//DTD SVG 20010904//EN"
 "http://www.w3.org/TR/2001/REC-SVG-20010904/DTD/svg10.dtd">
<svg version="1.0" xmlns="http://www.w3.org/2000/svg"
 width="700.000000pt" height="700.000000pt" viewBox="0 0 700.000000 700.000000"
 preserveAspectRatio="xMidYMid meet">
<metadata>
Created by potrace 1.14, written by Peter Selinger 2001-2017
</metadata>
<g transform="translate(0.000000,700.000000) scale(0.100000,-0.100000)"
fill="#000000" stroke="none">
<path d="M4585 6354 c-63 -15 -77 -20 -160 -62 -177 -89 -289 -216 -500 -562
-72 -118 -349 -589 -383 -650 -13 -25 -28 -49 -32 -55 -4 -5 -68 -116 -142
-245 -75 -129 -171 -296 -213 -370 -43 -74 -113 -196 -155 -270 -42 -74 -96
-167 -118 -207 -23 -39 -50 -87 -60 -105 -11 -18 -65 -114 -122 -213 -106
-186 -373 -656 -418 -735 l-25 -46 -101 23 c-56 12 -112 25 -126 27 -63 11
-227 38 -250 41 -14 2 -45 6 -70 9 -115 16 -384 22 -465 12 -211 -27 -389
-118 -491 -251 -151 -195 -139 -453 28 -617 140 -138 358 -218 608 -222 158
-3 257 18 399 87 201 96 323 217 553 547 26 38 51 64 59 61 52 -13 689 -192
701 -196 10 -4 25 11 46 45 18 28 32 53 32 56 0 2 11 22 25 44 14 22 25 43 25
48 0 5 -17 14 -37 19 -21 6 -94 27 -163 47 -331 95 -379 109 -430 122 -30 8
-67 19 -82 25 l-27 11 45 69 c24 38 44 71 44 73 0 1 52 95 116 207 64 112 130
229 147 259 16 30 131 231 254 447 122 216 235 414 250 440 14 26 46 80 70
120 23 39 43 74 43 76 0 2 20 38 44 78 24 41 141 243 261 449 266 457 449 758
527 867 88 123 176 206 266 250 70 35 83 38 171 40 135 3 238 -36 377 -143 94
-71 128 -85 174 -70 48 15 66 55 51 107 -20 68 -182 205 -316 267 -122 57
-299 76 -430 46z m-2880 -3649 c128 -19 237 -40 347 -66 l88 -21 -72 -104
c-204 -298 -404 -425 -668 -425 -296 0 -495 131 -493 325 2 149 110 253 313
297 101 22 319 20 485 -6z"/>
<path d="M5446 5134 c-191 -30 -357 -121 -516 -283 -85 -86 -130 -144 -276
-352 -35 -49 -42 -55 -64 -48 -14 4 -133 38 -265 74 -132 37 -285 80 -340 96
-54 15 -101 27 -103 25 -9 -10 -112 -189 -112 -197 0 -4 19 -13 43 -19 23 -6
51 -14 62 -17 11 -4 25 -8 30 -9 6 -2 33 -9 60 -17 425 -120 535 -152 535
-159 0 -4 -22 -45 -49 -90 -27 -46 -99 -173 -161 -283 -166 -294 -560 -986
-663 -1165 -49 -85 -99 -171 -109 -190 -209 -369 -654 -1122 -755 -1277 -118
-181 -209 -274 -322 -331 -72 -36 -79 -37 -180 -37 -89 0 -115 4 -166 24 -77
32 -148 73 -205 120 -66 54 -92 68 -133 74 -31 4 -42 0 -67 -23 -49 -46 -35
-104 46 -182 175 -169 339 -239 549 -233 126 3 206 24 307 81 143 81 238 175
351 347 88 134 367 596 474 787 11 19 67 116 125 215 158 272 470 813 557 968
46 82 65 114 258 453 111 193 214 375 231 405 16 30 53 94 81 142 28 49 51 92
51 97 0 4 6 13 14 20 12 9 37 7 118 -9 143 -29 143 -29 238 -46 47 -8 108 -17
135 -20 28 -3 61 -8 75 -10 76 -15 355 -21 457 -11 185 19 396 127 490 251
160 212 131 493 -69 654 -178 144 -476 215 -732 175z m258 -228 c196 -17 355
-127 385 -264 35 -168 -88 -308 -314 -356 -130 -27 -397 -11 -660 40 -44 8
-91 18 -105 20 -14 3 -41 9 -60 13 -19 5 -47 12 -62 15 l-27 6 58 88 c97 145
191 246 316 340 12 9 131 66 160 77 31 12 177 32 210 29 17 -1 61 -5 99 -8z"/>
<path d="M2245 5019 c-165 -25 -314 -102 -423 -218 -57 -61 -129 -178 -160
-259 -69 -180 -98 -443 -58 -521 26 -50 81 -69 128 -45 37 19 54 56 62 138 14
142 54 292 108 403 55 115 175 214 289 240 43 9 271 10 324 1 49 -8 329 -72
408 -93 84 -22 90 -20 114 28 12 23 38 70 58 104 l36 62 -68 21 c-89 28 -441
118 -490 126 -21 3 -41 8 -44 10 -15 9 -229 12 -284 3z"/>
<path d="M5263 3020 c-36 -22 -50 -57 -59 -155 -3 -38 -8 -73 -10 -76 -2 -4
-6 -24 -10 -45 -3 -22 -17 -75 -31 -119 -87 -278 -237 -398 -496 -396 -123 1
-197 14 -524 92 -134 32 -153 34 -153 19 0 -6 -10 -27 -23 -48 -13 -20 -38
-63 -56 -94 l-32 -57 68 -21 c76 -24 429 -115 483 -125 145 -27 306 -27 410 0
235 61 424 235 514 477 56 149 88 426 58 500 -22 53 -91 78 -139 48z"/>
</g>
</svg>
